<?xml version="1.0" encoding="UTF-8"?>
<svg id="Layer_1" data-name="Layer 1" xmlns="http://www.w3.org/2000/svg" viewBox="0 0 1847.73 1979.79">
  <defs>
    <style>
      .cls-1 {
        fill: #d5c7ff;
      }

      .cls-1, .cls-2, .cls-3, .cls-4, .cls-5, .cls-6, .cls-7, .cls-8, .cls-9, .cls-10, .cls-11, .cls-12, .cls-13, .cls-14, .cls-15, .cls-16, .cls-17, .cls-18, .cls-19, .cls-20, .cls-21, .cls-22, .cls-23, .cls-24, .cls-25, .cls-26, .cls-27, .cls-28, .cls-29, .cls-30, .cls-31 {
        stroke-miterlimit: 10;
      }

      .cls-1, .cls-13, .cls-15, .cls-22, .cls-32, .cls-25 {
        stroke: #0cf;
      }

      .cls-2 {
        stroke: #733e00;
      }

      .cls-2, .cls-7, .cls-22, .cls-24, .cls-26 {
        fill: none;
      }

      .cls-3 {
        fill: #5bd000;
      }

      .cls-3, .cls-4, .cls-27 {
        stroke: #238900;
      }

      .cls-4 {
        fill: #238900;
      }

      .cls-5 {
        fill: #f3ff8b;
        stroke: #f3ff8b;
      }

      .cls-6 {
        fill: #294f00;
        stroke: #294f00;
      }

      .cls-7, .cls-19 {
        stroke: #0ee700;
      }

      .cls-8 {
        fill: #a2bfff;
        stroke: #a2bfff;
      }

      .cls-9 {
        fill: #a29800;
        stroke: #a29800;
      }

      .cls-10 {
        fill: #aa00d0;
        stroke: #aa00d0;
      }

      .cls-11 {
        fill: #d0ffd6;
        stroke: #d0ffd6;
      }

      .cls-12 {
        fill: #ffb85c;
        stroke: #ffb85c;
      }

      .cls-33 {
        stroke-miterlimit: 10;
        stroke-width: 1px;
      }

      .cls-33, .cls-34, .cls-35, .cls-36, .cls-37, .cls-38 {
        fill: #fff;
      }

      .cls-33, .cls-34, .cls-35, .cls-36, .cls-37, .cls-38, .cls-39, .cls-40, .cls-41, .cls-42 {
        stroke: #fff;
      }

      .cls-34 {
        stroke-miterlimit: 10;
        stroke-width: 1px;
      }

      .cls-35 {
        stroke-miterlimit: 10;
        stroke-width: 1px;
      }

      .cls-36 {
        stroke-miterlimit: 10;
        stroke-width: 1px;
      }

      .cls-37 {
        stroke-miterlimit: 10;
        stroke-width: 1px;
      }

      .cls-38, .cls-39, .cls-40, .cls-41, .cls-42 {
        stroke-miterlimit: 10;
        stroke-width: 1px;
      }

      .cls-13, .cls-32 {
        fill: #0cf;
      }

      .cls-14 {
        fill: #f1a700;
        stroke: #f1a700;
      }

      .cls-15 {
        fill: #dfccff;
      }

      .cls-16 {
        fill: #8a5d3c;
        stroke: #8a5d3c;
      }

      .cls-17 {
        fill: #ffbc5c;
        stroke: #ffbc5c;
      }

      .cls-18 {
        fill: #4d4d4d;
        stroke: #4d4d4d;
      }

      .cls-40 {
        fill: #cbffa2;
      }

      .cls-19 {
        fill: #0ee700;
      }

      .cls-43 {
        stroke-miterlimit: 10;
        stroke-width: 1px;
      }

      .cls-43, .cls-44, .cls-20 {
        stroke: #999;
      }

      .cls-44 {
        stroke-miterlimit: 10;
        stroke-width: 1px;
      }

      .cls-20 {
        fill: #999;
      }

      .cls-21, .cls-26, .cls-45 {
        stroke: #ffd98b;
      }

      .cls-21, .cls-45 {
        fill: #ffd98b;
      }

      .cls-32 {
        stroke-miterlimit: 10;
        stroke-width: 1px;
      }

      .cls-23 {
        fill: #d07b00;
        stroke: #d07b00;
      }

      .cls-24 {
        stroke: #746f66;
      }

      .cls-25 {
        fill: #00b917;
      }

      .cls-27 {
        fill: #746f66;
      }

      .cls-28 {
        stroke: #000;
      }

      .cls-29 {
        stroke: #b96800;
      }

      .cls-29, .cls-31 {
        fill: #b96800;
      }

      .cls-45 {
        stroke-miterlimit: 10;
        stroke-width: 1px;
      }

      .cls-41 {
        fill: #ca8bff;
      }

      .cls-30 {
        fill: #e79300;
        stroke: #e79300;
      }

      .cls-42 {
        fill: #2ed4ff;
      }

      .cls-31 {
        stroke: #8b4a00;
      }
    </style>
  </defs>
  <polyline class="cls-7" points="939.65 1958.4 933.19 1967.01 941.81 1971.32"/>
  <ellipse class="cls-32" cx="924.43" cy="992.55" rx="917.4" ry="922.79" transform="translate(-112.09 1867.39) rotate(-87.2)"/>
  <path class="cls-4" d="M861.52,862.64c169.03-64,211.24-91.03,225.65-73.05,16.8,20.95-35.81,63.34-16.54,117.78,13.31,37.58,49.7,49.38,43.95,71.15-4.76,17.98-31.03,15.23-55.99,42.53-18.33,20.05-21.02,39.99-26.4,54.76-29.68,81.53-184.47,124.47-203.16,97.86-8.12-11.56,17.31-25.05,25.09-72.08,6.89-41.76-2.61-94.95-32.2-135.26-22.01-30-41.76-34.69-40.59-51.58,1.59-23,39.82-36.85,80.18-52.14l.02.02Z"/>
  <path class="cls-4" d="M257.31,493.7c14.88,8.96,33.83,20.37,35.04,36.31,1.72,22.44-32.78,41.37-53.39,52.68-17.06,9.35-44.73,21.47-82.93,25.65,4.44,3.73,15.38,13.98,19.98,31.2,3.25,12.15,1.94,22.46.78,28.06-1.83,6.68-5.56,15.94-13.95,20.87-13.57,7.97-29.83-.93-30.88,1.72-1.64,4.13,34.67,27.39,66.18,28.86,15.48.71,23.19-2.61,33.94-1.74,4.97.41,8.08.67,11.48,2.35,9.32,4.57,12.88,14.58,15.79,23.13,5.21,15.35,9.04,26.66,3.85,35.32-8.03,13.33-27.44,3.36-47.53,18.67-9.82,7.47-21.36,22.07-19.17,36.91,2.35,15.85,19.79,32.95,35.51,32.02,41.2-2.43,44.64-127.1,96.91-134.6,21.28-3.06,55.95,12.55,69.47-1.12,1.51-1.53,7.06-7.75,16.39-11.22,7.02-2.61,12.6-2.28,14.02-2.2,6.89.52,11.74,3.32,14.84,5.04,20.95,11.61,24.42,7.93,31.64,14.49,15.07,13.72,11.31,40.06,10.79,43.65-4.54,31.76-32.73,48.84-34.8,50.05-27.63,16.17-65.53,12.06-65.47,16.19,0,.06.04.22.17.54.52,1.31,2.07,2.65,9.97,12.9,1.27.45,7.24,2.71,10.34,9.13,4.07,8.44-.43,16.52-.84,17.21l-.24.93c-.52,1.92-4.31,3.08-4.31,3.08-5.28,1.62,4.76,73.41-10.72,87.97-18.18,17.06-94.52-22.89-90.66-35.38,6.12-19.77,221.75,1.72,235.77,66.2,13.5,62.15-154.06,193-181.33,229.98-.47.62-2.05,3.14-4.76,5.94-8.76,9.02-23.84,14.32-112.52,76.62-29.74,20.89-54.25,38.7-59.31,67.21-1.53,8.64-10.21,34.52,1.53,45.65,25.37,24.08,111.34-50.61,128.03-33.4,14.97,15.44-23.69,106.86-86.94,113.68-19.73,2.13-36.63-4.52-47.49-10.29-8.42-4.01-16.86-8.01-25.28-12.02.06.32.13.62.19.95l-58.64-105.67-42.68-107.25-26.17-98.01-14.13-89.67-5.28-96.2,5.51-104.04,15.2-94.67,31.44-112.13,41.65-99.84,64.93-112.2c-.32-.19-.62-.37-.95-.56,1.85-2.07,12.3-13.42,24.29-11.74,4.89.69,10.12,3.53,12.68,4.93,4.48,2.43,7.86,5.08,10.12,7.06,17.29,6.93,34.59,13.87,51.9,20.8l.02-.02Z"/>
  <path class="cls-4" d="M1636.71,562.27c-15.68,7.43-35.68,16.93-38.48,32.65-3.94,22.16,28.51,44.43,47.89,57.74,16.02,11,42.38,25.8,79.98,33.77-26.77-11.11-53.52-22.2-80.28-33.31,26.12,80.87,41.65,129.97,27.37,139.29-8.64,5.64-19.9-9.22-45.27-3.92-8.01,1.68-23.11,4.82-30,17.49-6.53,11.97-3.51,28.45,4.65,38.72,11.52,14.49,31.72,27.63,45.44,23.3,39.32-12.45,63.53-176.24-2.2-214.9-59.18-34.8-187.25,34.26-189.04,117.95-1.14,53.08,48.76,101.54,55.56,98.14,7.09-3.53-27.37-65.47-39.52-85.8-2.37-3.96-7.71-12.6-15.18-12.79-7.52-.19-14.24,8.27-17.1,15.23-2.76,6.7-1.74,11.56.24,28,2.35,19.34,3.49,29.09,2.43,32.28-2.15,6.53-7.02,11.33-36.37,26.17-34.52,17.42-38.31,16.07-45.01,24.08-13.8,16.5-8.33,42.94-5.99,53.9,6.33,29.72,49.75,98.01,120.02,179.67,47.12-53.54,55.58-119.78,27.16-158.22-5.43-7.34-20.18-24.46-52.31-32.76-27.11-25.2-34.91-32.35-34.95-32.28-.06.06,14.92,13.52,34.74,32,1.4,1.31,2.63,2.41,3.98,3.49,25.95,21,43.33,20.16,48,30.52,4.95,10.94-9.5,24.7-18.67,39.06-21.26,33.27-3.42,53.04-7.95,118.38-4.09,59.03-24.55,136.58-9.32,163.75,8.94,15.96,10.9,9.58,108.49,93.81,42.17,36.39,25.22,58.43,52.33,72.77,11.84,6.27,20.72,6.29,88.55,6.81-23.04,33.4-46.09,66.8-69.15,100.2l68.85-99.32,53.13-102.46,35.77-94.93,22.98-87.82,14.82-95.21,4.87-104.06-5.73-95.72-20.14-114.7-31.53-103.48-53.45-118.1-49.21-80.87c-12.79-4.33-17.72-1.29-19.45.17-10.92,9.17,3.29,41.43,5.28,45.78,6.35,14.04,17.49,30,17.49,30-17.9,5.19-35.81,10.36-53.71,15.55h-.02Z"/>
  <path class="cls-4" d="M537.31,262.46c6.53,16.09,14.84,36.61,30.36,40.29,21.9,5.21,46-25.89,60.38-44.47,11.91-15.38,28.21-40.81,38.31-77.89l22.98-29.05c4.97-2.54,14.49-6.48,26.12-5.19,18.78,2.11,30.08,16.43,35.51,23.3,22.27,28.21,18.71,64.82,18.13,69.88-2.26,20.29-9.32,26.17-6.5,44.97,1.21,8.08,3.49,23.34,15.74,30.95,11.59,7.21,28.19,5.15,38.94-2.41,16.02-11.28,8.81-27.72,25.86-44.02,8.92-8.53,25.15-17.64,39.45-13.16,16.52,5.17,24.21,26.53,26.06,40.08,5.34,39.22-27.72,90.13-72.16,108.58-16.69,6.93-57.61,18.67-87.93,34.5-4.09,2.13-13.03,6.98-13.65,14.43-.62,7.49,7.43,14.69,14.21,17.94,6.53,3.14,11.46,2.41,27.95,1.38,19.45-1.23,29.25-1.81,32.37-.58,6.37,2.52,10.92,7.65,24.01,37.84,15.42,35.47,13.85,39.17,21.45,46.32,13.44,12.64,37.06,18.63,53.45,9.09,12.96-7.56,21.08-24.61,16.65-31.53,0,0-1.92-2.99-27.76-5.66-14.45-6.18-28.84-14.75-28.96-25.13-.13-10.42,14.17-13.93,33.94-32.84,7.39-7.04,8.55-9.56,36.93-49.94,20.89-29.68,31.4-44.56,34.59-45.74,28.92-10.79,54.33,46.02,121.07,81.4,17.31,9.17,99.32,49.7,162.94,18.76,16.43-7.99,10.21-10.34,99.9-102.92,25.3-26.1,46.73-47.53,75.65-48.05,18.93-.34,43.61,8.23,44.86,8.66,9.52,3.36,21.19,7.47,33.68,16.73,20.89,15.48,21.71,28.79,39.17,36.42,10.72,4.67,21.19,4.35,27.87,3.51l28.17-13.63-65.77-64.93-95.19-74.47-99.23-58.94-92.71-41.2-86.36-28-94.2-20.26-103.61-10.85-95.9.19-115.67,13.48-105.11,25.5-120.98,46.56-83.56,44.47c-5.04,12.51-2.3,17.62-.95,19.42,8.53,11.44,41.54-.9,46.02-2.63,14.36-5.53,30.95-15.74,30.95-15.74,8.18,44.04,12.43,54.51,12.43,54.51l.09.09Z"/>
  <path class="cls-4" d="M447.49,1668.97c10.08-16.88,19.02-30.99,35.3-36.07,0,0,7.06-2.22,47.66,2.67,7.3-2.52,14.62-5.04,21.92-7.56,9.13-7.67,25.52-19.38,48.69-25.65,5.99-1.62,61.01-15.87,83.69,8.42,34.35,36.76-23.45,142.71-30.62,140.8-3.77-1.01.45-33.59,2.52-51.62.67-5.69.78-5.28,3.42-25.71,3.06-23.6,2.76-22.96,3.42-25.71,2.13-9.02,6.57-27.67,21.26-37.77,3.62-2.48,8.01-4.57,26.23-7.34,27.57-4.2,38.55,4.31,47.64-4.13,7.21-6.7,7.41-18.26,7.41-19.04,0,0,0-6.89-3.55-13.59-10.75-20.16-47.23-20.67-82.78-45.5-3.77-2.63-12.02-8.59-11.67-16.07.34-7.52,9.26-13.61,16.39-15.98,11.67-3.85,17.57,6.07,27.91,2.24,8.25-3.06,12.21-11.63,13.48-14.41,4.72-10.21.24-15.01,3.32-23.56,3.49-9.73,13.09-14.15,31.27-22.18,11.8-5.21,24.31-9.35,39.84-12.77,29.42-6.46,44.21-9.82,54.18-2.15,11.89,9.15,17.75,27.11,12.45,33.4-1.83,1.31-3.29,1.72-4.39,1.27-3.14-1.29-3.29-9.82-.47-25.56,4.89-2.18,12.4-4.82,21.81-5.41,12.56-.75,35.1,1.77,40.34,12.75,9.91,20.78-42.42,70.92-50.63,65.6-5.23-3.4,1.25-33.64,21.49-43.31,11.09-5.3,28.23-5.32,36.46,3.94,13.91,15.66-7.84,46.3,5.75,58.49,5.9,5.28,10.29-1.31,26.83,4.57,19.81,7.04,28.04,20.31,61.2,26.73,63.7,12.32,135.93-16.15,164.01,2.3,15.27,10.04,8.79,11.56,85.88,114.89,21.75,29.14,40.25,53.13,68.87,57.35,18.74,2.76,44.3-2.56,45.59-2.84,9.86-2.11,21.97-4.69,35.55-12.27,22.7-12.68,25.22-25.78,43.52-31.1,11.24-3.27,21.58-1.59,28.08.09l26.19,17.12-73.56,55.95-103.95,61.63-105.97,45.72-97.23,28.94-89.22,16.69-96.03,8.01-104.14-2.52-95.08-12.49-113-28.21-100.98-38.79-114.01-61.7-77.16-54.81c-3.4-13.05-.02-17.77,1.55-19.38,9.93-10.25,41.09,6.22,45.31,8.51,13.55,7.32,28.69,19.58,28.69,19.58,2.2-12.73,7.11-32.04,19.32-52.46l.02.02Z"/>
  <g id="Centre_Island" data-name="Centre Island">
    <g>
      <g>
        <path class="cls-23" d="M937.89,870.61c.9-.71,3.34,0,10.36,6.87.37,8.38,1.16,10.27,1.87,10.29,1.23.04,2.2-5.73,7.26-11.52.84-.97,1.46-1.55,1.68-1.74,1.16-1.1,4.05-3.7,8.27-4.72,3.64-.88,9.32-.99,9.8.97.54,2.28-6.76,4.09-12.9,12.58-2.13,2.97-3.64,6.55-6.61,13.72-2.61,6.29-3.92,9.43-4.48,12.86-.82,4.93-.28,19.81-.32,14.86.13,4.46.28,8.89.41,13.35l-11.91-.11c.8-3.96,1.72-9.35,2.45-15.72.58-5.17,1.44-12.88,1.14-20.11-.8-18.84-9.32-29.7-7.02-31.55v-.02Z"/>
        <path class="cls-25" d="M920.18,874.7c-.43-6.44-1.81-7.21-.99-10.98.13-.62,1.62-6.96,6.14-8.96,2.41-1.06,4.74-.5,8.1.3,4.57,1.1,6.4,2.8,7.11,2.02.69-.75-.47-2.89-3.21-8.87-3.7-8.12-3.83-9.13-3.49-10.21,1.23-3.81,7.62-5.71,12.27-5.23,1.1.11,6.98.88,9.22,5.6,2.02,4.33-.22,9.37.71,9.65,1.1.34,2.65-7.39,8.36-11.07,3.17-2.02,7.88-2.99,11.87-.86,2.95,1.57,5.21,4.72,5.73,8.1.56,3.7-.84,8.72-.84,8.72,0,0-10.83,6.46-10.47,7.47.34.93,8.94-5.25,15.63-2.02,3.79,1.83,6.78,6.57,6.29,10.75-.43,3.6-3.62,8.18-3.62,8.18,0,0-2.43,5.58-5.86,10.27-2.84,3.92-4.46,6.16-6.7,6.31-3.21.24-3.53-4.13-7.67-4.67-3.92-.5-8.79,2.74-8.79,2.74,0,0-6.85,2.24-14.08,2.97-4.2.43-4.29-.09-10.6.47,0,0-1.53.13-6.55.62,0,0-6.35-3.36-8.51-8.64-1.49-3.66.54-4.59,0-12.68l-.06.02Z"/>
      </g>
      <path class="cls-3" d="M882.3,960.26c-4.07-2.24-1.46-7.6-5.73-13.65-6.46-9.17-20.44-8.12-20.26-9.69.15-1.34,10.53-3.6,18.93,1.31,7.02,4.09,9.04,11.07,10.12,10.57,1.27-.58-.71-10.64-6.61-20.26-4.91-8.01-9.93-11.48-9.24-12.34.84-1.08,10.19,2.37,15.85,10.12,7.39,10.1,5.86,23.78,5.73,23.78s-1.66-13.65.88-27.74c.75-4.18,2.02-9.2,6.16-11.89,2.67-1.72,6.35-2.41,7.04-1.31.84,1.31-3.27,4.22-6.16,8.81-6.89,10.9-3.34,25.41-1.77,25.54,1.29.11.8-9.45,6.61-12.34,4.91-2.43,12,1.06,11.89,2.65-.11,1.57-7.19-.15-11.46,4.39-1.4,1.49-2.26,3.42-3.53,17.19-15.89,6.27-18.5,4.85-18.5,4.85l.04.02Z"/>
    </g>
  </g>
  <g id="Every_Last_Drop" data-name="Every Last Drop">
    <g>
      <path class="cls-17" d="M200.58,895.76c-8.66.5-14.86.39-25.84,2.15-14.43,2.33-21.71,3.6-25.84,8.61-8.81,10.68,4.61,25.5-2.15,34.46-11.33,15.01-59.48-12.53-73.22,4.31-6.61,8.12-6.46,28-6.46,28,0,0,37.45,16.24,36.61,30.15-.62,10.25-21.49,9.32-25.84,23.69-1.44,4.74-1.77,7.82,17.23,43.07-10.1-22.01,17.68,46.99,15.07,71.07-1.57,14.58-5.17,13.95-6.46,30.15-1.89,23.9,4.59,42.36,6.46,47.38,4.41,11.76,14.56,38.83,38.76,49.53,14.02,6.2,36.61,8.61,36.61,8.61,0,0,45.14-27.29,62.45-68.91,6.68-16.04,8.59-32.71,10.77-51.68,2.67-23.3,1.18-35.75,10.77-49.53,8.38-12.08,20.03-17.68,23.69-19.38,25.71-12,42.34,2.09,53.84-8.61,13.61-12.64,3.17-44.26,0-53.84-2.65-8.01-9.26-28.02-28-43.07-25.24-20.26-50.33-13.8-55.99-30.15-3.04-8.76,3.79-11.84,2.15-28-.54-5.28-2.52-24.89-15.07-32.3-9.78-5.77-15.07,2.3-49.53,4.31Z"/>
      <path class="cls-24" d="M331.54,1060.79c.13-.28.52-.99,1.34-1.34.69-.3,1.31-.15,2.02,0,.82.19,1.96.45,2.69,1.34.56.69.6,1.79.67,4.03.02.86,0,.9,0,3.36,0,1.53.02,2.02,0,2.02-.13,0-1.27-4.26-.67-9.41.58-4.87,2.28-6.72,2.56-8.48,0-.04.02-.17.13-.26.56-.41,2.95,1.25,4.03,3.36.32.62.88,2,.67,4.03"/>
      <path class="cls-24" d="M338.26,1065.51c.22-.67.45-1.34.67-2.02h0c.45.17,1.27.54,2.02,1.34.97,1.03,1.25,2.2,1.34,2.69"/>
      <path class="cls-24" d="M337.59,1058.79c-.19-.65-.56-1.66-1.34-2.69-.73-.97-1.55-2.05-2.69-2.02-1.08.04-1.83,1.08-2.02,1.34-.58.82-.67,1.64-.67,2.02"/>
      <path class="cls-24" d="M337.59,1064.84c-1.03-.8-1.64-.8-2.02-.67-.45.15-.71.6-1.34,1.34h0"/>
      <path class="cls-29" d="M100.45,960.22c-.34-2.69,11.35-3.23,24.27-16.11,10.4-10.38,16.09-23.3,18.2-28.21,6.57-15.25,6.85-25.56,9.71-25.52,3.04.04,2.95,11.63,10.92,28.21,2.61,5.41,6.4,13.14,13.35,20.16,10.55,10.62,19.47,10.62,19.4,13.44-.22,9.2-94.86,15.72-95.83,8.05l-.02-.02Z"/>
      <path class="cls-29" d="M156.46,977.34c-.22-1.68,7.13-2.02,15.25-10.12,6.53-6.53,10.1-14.64,11.44-17.72,4.13-9.58,4.31-16.04,6.09-16.02,1.92,0,1.85,7.3,6.85,17.72,1.64,3.4,4.03,8.25,8.38,12.66,6.63,6.68,12.23,6.65,12.19,8.44-.13,5.77-59.59,9.86-60.19,5.06v-.02Z"/>
      <path class="cls-29" d="M100.45,1088.83c-.26-2.09,8.81-2.5,18.82-12.49,8.05-8.05,12.47-18.07,14.11-21.88,5.08-11.82,5.3-19.81,7.52-19.79,2.35.02,2.28,9.02,8.46,21.88,2.02,4.2,4.95,10.19,10.34,15.61,8.18,8.25,15.1,8.23,15.05,10.42-.17,7.13-73.56,12.19-74.32,6.25h.02Z"/>
      <path class="cls-29" d="M144.12,1067.9c-.22-1.68,7.13-2.02,15.25-10.12,6.53-6.53,10.1-14.64,11.44-17.72,4.13-9.58,4.31-16.04,6.09-16.02,1.92,0,1.85,7.3,6.85,17.72,1.64,3.4,4.03,8.25,8.38,12.66,6.63,6.68,12.23,6.65,12.19,8.44-.13,5.77-59.59,9.86-60.19,5.06v-.02Z"/>
      <path class="cls-29" d="M203.81,1109.07c-.26-2.09,8.81-2.5,18.82-12.49,8.05-8.05,12.47-18.07,14.11-21.88,5.08-11.82,5.3-19.81,7.52-19.79,2.35.02,2.28,9.02,8.46,21.88,2.02,4.2,4.95,10.19,10.34,15.61,8.18,8.25,15.1,8.23,15.05,10.42-.17,7.13-73.56,12.19-74.32,6.25h.02Z"/>
      <path class="cls-29" d="M144.57,1214.44c-.22-1.68,7.13-2.02,15.25-10.12,6.53-6.53,10.1-14.64,11.44-17.72,4.13-9.58,4.31-16.04,6.09-16.02,1.92,0,1.85,7.3,6.85,17.72,1.64,3.4,4.03,8.25,8.38,12.66,6.63,6.68,12.23,6.65,12.19,8.44-.13,5.77-59.59,9.86-60.19,5.06v-.02Z"/>
      <polygon class="cls-31" points="277.12 1014.04 268.94 1011.11 272.51 975.79 287.57 972.04 298.87 985.22 277.12 1014.04"/>
      <polygon class="cls-31" points="156.89 1161.17 151.31 1167.86 119.4 1152.36 121.03 1136.92 137.31 1130.84 156.89 1161.17"/>
      <g>
        <polygon class="cls-24" points="268.31 1042.03 276.09 1066.32 314.1 1055.02 321.03 1045.84 318.1 1036.05 307.92 1031.26 268.31 1042.03"/>
        <path class="cls-24" d="M330.74,1038.33c.99-4.03-1.85-7.69-5.1-7.97-2.8-.24-5.77,2.05-6.33,5.47l11.44,2.5h0Z"/>
        <path class="cls-24" d="M302.79,1032.79c.02,3.04.37,7.28,1.81,12.1.86,2.91,2.39,6.89,5.1,11.13"/>
        <path class="cls-24" d="M307.59,1031.22c0,2.93.34,7.02,1.74,11.69.84,2.82,2.3,6.65,4.93,10.75"/>
        <path class="cls-24" d="M297.86,1033.68c.02,3.04.37,7.28,1.81,12.1.86,2.91,2.39,6.89,5.1,11.13"/>
        <path class="cls-24" d="M293.06,1035.12c.02,3.04.37,7.28,1.81,12.1.86,2.91,2.39,6.89,5.1,11.13"/>
        <path class="cls-24" d="M288.25,1036.54c.02,3.04.37,7.28,1.81,12.1.86,2.91,2.39,6.89,5.1,11.13"/>
        <path class="cls-24" d="M283.45,1037.96c.02,3.04.37,7.28,1.81,12.1.86,2.91,2.39,6.89,5.1,11.13"/>
        <path class="cls-24" d="M278.63,1039.41c.02,3.04.37,7.28,1.81,12.1.86,2.91,2.39,6.89,5.1,11.13"/>
        <path class="cls-24" d="M273.83,1040.83c.02,3.04.37,7.28,1.81,12.1.86,2.91,2.39,6.89,5.1,11.13"/>
      </g>
      <path class="cls-24" d="M337.55,1059.26c1.4-1.85,2.5-2.22,3.27-2.18,0,0,.43.02,2.74,1.23h0l.17,4.03"/>
    </g>
  </g>
  <g id="Prometheus_Fuels" data-name="Prometheus Fuels">
    <g>
      <path class="cls-20" d="M1523.67,700.61c.26,10.92,1.72,50.2,15.25,84.83,5.86,15.01,13.7,28.71,13.7,28.71,6.74,11.37,13.18,20.37,18.09,26.77,9.13,11.89,22.74,29.37,45.22,45.33,7.58,5.38,14.26,9.24,18.82,11.69l38.61,28.94,96.48-1.1-38.61-28.94c-4.57-2.46-11.24-6.31-18.82-11.69-22.46-15.96-36.09-33.44-45.22-45.33-4.91-6.4-11.35-15.38-18.09-26.77,0,0-7.82-13.7-13.7-28.71-13.52-34.63-14.99-73.91-15.25-84.83l-96.48,1.1Z"/>
      <polygon class="cls-20" points="1673.36 926.88 1725.8 1064.13 1810.11 1059.63 1769.84 925.81 1673.36 926.88"/>
      <g>
        <polygon class="cls-20" points="1506.65 775.15 1529.05 582.19 1535.55 776.57 1506.65 775.15"/>
        <circle class="cls-20" cx="1530.06" cy="583.33" r="5.38"/>
      </g>
      <g>
        <polygon class="cls-20" points="1610.52 777.21 1632.89 584.26 1639.4 778.63 1610.52 777.21"/>
        <circle class="cls-20" cx="1633.93" cy="585.4" r="5.38"/>
      </g>
      <rect class="cls-38" x="1562.65" y="712.62" width="36.61" height="4.31" transform="translate(789.81 2258.92) rotate(-87.2)"/>
      <rect class="cls-33" x="1630.45" y="824.01" width="4.31" height="36.61" transform="translate(-142.64 1314.98) rotate(-42.2)"/>
      <rect class="cls-35" x="1694.39" y="881.04" width="4.31" height="36.61" transform="translate(-43.71 1710.9) rotate(-52.93)"/>
      <rect class="cls-36" x="1738.77" y="943.59" width="4.31" height="36.61" transform="translate(-205.37 552.05) rotate(-17.03)"/>
      <rect class="cls-37" x="1760.46" y="1013.67" width="4.31" height="36.61" transform="translate(-206.66 489.99) rotate(-14.96)"/>
      <g>
        <polygon class="cls-20" points="1656.6 974.3 1678.98 781.37 1685.48 975.73 1656.6 974.3"/>
        <circle class="cls-20" cx="1680.01" cy="782.49" r="5.38"/>
      </g>
      <g>
        <polygon class="cls-20" points="1760.45 976.37 1782.84 783.44 1789.35 977.79 1760.45 976.37"/>
        <circle class="cls-20" cx="1783.86" cy="784.56" r="5.38"/>
      </g>
      <path class="cls-30" d="M1625.25,823.21c.78-3.12-2.05-6.55-6.76-8.81,18.89-16.24,19.86-40.31,7.97-49.81-8.85-7.06-25.09-6.22-39.09,2.97-1.36-1.94-3.7-4.65-7.56-6.68-2.99-1.57-10.51-4.65-13.68-1.98-3.1,2.63-1.16,10.06,2.39,18.95,5.13,12.83,22.72,56.81,45.27,52.61,3.83-.71,10.44-3.32,11.44-7.28l.02.02Z"/>
      <ellipse class="cls-44" cx="1571.93" cy="797.04" rx="13.5" ry="11.54" transform="translate(-160.26 1122.24) rotate(-37.52)"/>
      <ellipse class="cls-44" cx="1594.03" cy="825.81" rx="13.5" ry="11.54" transform="translate(-173.21 1141.65) rotate(-37.52)"/>
      <g>
        <path class="cls-6" d="M1734.86,956.28l8.05-1.83c7.36,1.18,14.04,6.61,17.12,14.15,3.38,8.27,2.37,18.97-3.49,23.19-2.69,1.94-5.73,2.02-7.54,1.87l5.04,12.71-16.88,6.72-27.54-69.32,17.51-6.96,7.75,19.49-.02-.02Z"/>
        <ellipse class="cls-43" cx="1716.05" cy="967.02" rx="8.23" ry="8.27" transform="translate(-235.8 702.01) rotate(-21.67)"/>
        <ellipse class="cls-43" cx="1727.57" cy="995.99" rx="8.23" ry="8.27" transform="translate(-245.69 708.31) rotate(-21.67)"/>
      </g>
      <path class="cls-18" d="M1743.13,1026.87c-4.97-1.64-5.38-4.69-8.64-4.44-2.82.22-4.95,2.71-6.89,5-1.29,1.53-2.89,3.4-3.64,6.5-.3,1.27-1.38,5.75.71,8.05,1.46,1.62,4.18,1.79,5.88.73.43-.28.5-.43.73-.41,1.55.11.73,6.87,3.9,10.88,2.48,3.14,6.18,3.01,6.48,2.99,4.37-.24,7.09-4.69,8.05-6.29,2.63-4.31,2.71-8.81,2.8-11.89.09-3.79.17-7.37-1.74-9.43-1.83-1.96-3.38-.3-7.67-1.7h.02Z"/>
      <path class="cls-18" d="M1639.92,845.29c-1.51-1.31-2.63-1.38-3.34-1.23,0,0-1.1.22-4.44,4.07h0l-5.92-.28h0c-1.89,4.13-1.74,6.27-1.21,7.45.71,1.55,1.92,1.16,4.07,3.42,1.55,1.64,1.34,2.26,3.17,4.46,1.89,2.26,2.84,3.38,4.07,3.42,2.07.09,3.7-2.74,6.29-7.21,1.59-2.76,2.39-4.11,2.84-6.31.8-3.79.04-7.06-.43-8.61"/>
      <path class="cls-18" d="M1784.2,1002.3c-.82-2.86-4.18-5.58-9.37-5-2.61.3-6.91,1.55-8.81,4.01-2.41,3.14,1.83,4.72.99,9.97-.93,5.84-7.09,9.58-5.75,10.72,1.46,1.25,10.25-2.18,16.15-7.37,1.68-1.49,8.25-7.24,6.78-12.36v.02Z"/>
      <path class="cls-18" d="M1653.14,807.56c-4.97-1.64-5.38-4.69-8.64-4.44-2.82.22-4.95,2.71-6.89,5-1.29,1.53-2.89,3.4-3.64,6.5-.3,1.27-1.38,5.75.71,8.05,1.46,1.62,4.18,1.79,5.88.73.43-.28.5-.43.73-.41,1.55.11.73,6.87,3.9,10.88,2.48,3.14,6.18,3.01,6.48,2.99,4.37-.24,7.09-4.69,8.05-6.29,2.63-4.31,2.71-8.81,2.8-11.89.09-3.79.17-7.37-1.74-9.43-1.83-1.96-3.38-.3-7.67-1.7h.02Z"/>
      <path class="cls-18" d="M1629.23,1177.88c2.56,5.84,4.69,10.64,10.12,13.44,6.42,3.32,14.15,2.11,19.47-1.21,2.2-1.38,6.89-4.33,6.87-8.29,0-2.84-2.45-4.8-14.43-13.65-8.76-6.48-10.66-7.77-10.34-9.13.97-4.2,21.71-3.34,21.73-3.25,0,.06-8.36.71-8.61-.43-.26-1.21,9.37-1.68,13.33-7.97,3.49-5.58.95-13.14-1.21-19.47-2.48-7.32-6.65-13.83-7.97-13.33-2,.75,5.6,16.26-1.16,23.67-1.46,1.59-2.61,1.74-8.81,3.88-13.33,4.59-19.98,6.87-22.03,9.69-5.23,7.28.11,19.38,3.04,26.01v.04Z"/>
      <g>
        <rect class="cls-41" x="1550.86" y="1255.26" width="73.22" height="64.61" transform="translate(223.89 2810.24) rotate(-87.2)"/>
        <rect class="cls-40" x="1639.04" y="1278.74" width="64.61" height="25.84" transform="translate(299.59 2897.91) rotate(-87.2)"/>
        <rect class="cls-42" x="1579.72" y="1251.32" width="120.6" height="38.76" transform="translate(290.71 2846.69) rotate(-87.2)"/>
        <rect class="cls-39" x="1584.27" y="1267.09" width="6.46" height="38.76" transform="translate(225.01 2809.23) rotate(-87.2)"/>
        <rect class="cls-39" x="1585.11" y="1249.88" width="6.46" height="38.76" transform="translate(243 2793.7) rotate(-87.2)"/>
        <rect class="cls-39" x="1583.43" y="1284.3" width="6.46" height="38.76" transform="translate(207.03 2824.76) rotate(-87.2)"/>
        <rect class="cls-39" x="1670.24" y="1268" width="4.31" height="4.31" transform="translate(322.06 2878.51) rotate(-87.2)"/>
        <rect class="cls-39" x="1637.83" y="1223.4" width="8.61" height="8.61" transform="translate(335.68 2807.91) rotate(-87.2)"/>
        <rect class="cls-39" x="1636.66" y="1247.04" width="8.61" height="8.61" transform="translate(310.95 2829.23) rotate(-87.2)"/>
        <rect class="cls-39" x="1635.5" y="1270.71" width="8.61" height="8.61" transform="translate(286.21 2850.59) rotate(-87.2)"/>
        <rect class="cls-39" x="1634.35" y="1294.38" width="8.61" height="8.61" transform="translate(261.47 2871.94) rotate(-87.2)"/>
        <rect class="cls-39" x="1669.51" y="1283.05" width="4.31" height="4.31" transform="translate(306.34 2892.08) rotate(-87.2)"/>
        <rect class="cls-39" x="1668.77" y="1298.11" width="4.31" height="4.31" transform="translate(290.59 2905.68) rotate(-87.2)"/>
      </g>
      <path class="cls-18" d="M1588.17,1206.91c-4.97-1.64-5.38-4.69-8.64-4.44-2.82.22-4.95,2.71-6.89,5-1.29,1.53-2.89,3.4-3.64,6.5-.3,1.27-1.38,5.75.71,8.05,1.46,1.62,4.18,1.79,5.88.73.43-.28.5-.43.73-.41,1.55.11.73,6.87,3.9,10.88,2.48,3.14,6.18,3.01,6.48,2.99,4.37-.24,7.09-4.69,8.05-6.29,2.63-4.31,2.71-8.81,2.8-11.89.09-3.79.17-7.37-1.74-9.43-1.83-1.96-3.38-.3-7.67-1.7h.02Z"/>
      <path class="cls-18" d="M1595.85,1177.34c-1.51-1.31-2.63-1.38-3.34-1.23,0,0-1.1.22-4.44,4.07h0l-5.92-.28h0c-1.89,4.13-1.74,6.27-1.21,7.45.71,1.55,1.92,1.16,4.07,3.42,1.55,1.64,1.34,2.26,3.17,4.46,1.89,2.26,2.84,3.38,4.07,3.42,2.07.09,3.7-2.74,6.29-7.21,1.59-2.76,2.39-4.11,2.84-6.31.8-3.79.04-7.06-.43-8.61"/>
      <path class="cls-18" d="M1686.24,1224.89c-1.51-1.31-2.63-1.38-3.34-1.23,0,0-1.1.22-4.44,4.07h0l-5.92-.28h0c-1.89,4.13-1.74,6.27-1.21,7.45.71,1.55,1.92,1.16,4.07,3.42,1.55,1.64,1.34,2.26,3.17,4.46,1.89,2.26,2.84,3.38,4.07,3.42,2.07.09,3.7-2.74,6.29-7.21,1.59-2.76,2.39-4.11,2.84-6.31.8-3.79.04-7.06-.43-8.61"/>
      <path class="cls-3" d="M1400.87,944.93c-4.07-2.24-1.46-7.6-5.73-13.65-6.46-9.17-20.44-8.12-20.26-9.69.15-1.34,10.53-3.6,18.93,1.31,7.02,4.09,9.04,11.07,10.12,10.57,1.27-.58-.71-10.64-6.61-20.26-4.91-8.01-9.93-11.48-9.24-12.34.84-1.08,10.19,2.37,15.85,10.12,7.39,10.1,5.86,23.78,5.73,23.78s-1.66-13.65.88-27.74c.75-4.18,2.02-9.2,6.16-11.89,2.67-1.72,6.35-2.41,7.04-1.31.84,1.31-3.27,4.22-6.16,8.81-6.89,10.9-3.34,25.41-1.77,25.54,1.29.11.8-9.45,6.61-12.34,4.91-2.43,12,1.06,11.89,2.65-.11,1.57-7.19-.15-11.46,4.39-1.4,1.49-2.26,3.42-3.53,17.19-15.89,6.27-18.5,4.85-18.5,4.85l.04.02Z"/>
      <path class="cls-27" d="M1441.96,968.9c-3.17-3.4.99-7.69-1.14-14.75-3.25-10.75-16.84-14.13-16.19-15.57.56-1.23,11.11-.11,17.55,7.21,5.36,6.09,5.1,13.35,6.29,13.22,1.4-.15,2.67-10.32.09-21.3-2.15-9.15-5.81-14-4.91-14.62,1.14-.75,8.92,5.45,11.87,14.6,3.83,11.91-1.92,24.4-2.05,24.38s2.71-13.48,9.56-26.06c2.02-3.75,4.8-8.1,9.58-9.35,3.08-.8,6.78-.28,7.11.97.39,1.51-4.44,2.99-8.61,6.42-9.97,8.16-11.16,23.06-9.69,23.69,1.21.52,3.73-8.72,10.14-9.63,5.43-.75,11.07,4.78,10.47,6.25-.6,1.46-6.78-2.41-12.25.58-1.79.99-3.21,2.54-8.74,15.2-17.06.97-19.08-1.21-19.08-1.21l.02-.04Z"/>
    </g>
    <rect class="cls-34" x="1588.22" y="773.12" width="4.31" height="36.61" transform="translate(-184.99 730.47) rotate(-24.49)"/>
  </g>
  <g id="neuro_flowers" data-name="neuro flowers">
    <path class="cls-16" d="M824.05,42.65l-1.31,26.79-11.39,31.38c-13.42,5.53-23.37,12.77-22.46,18.3,1.1,6.72,18.33,11.65,31.96,8.03,8.1-2.15,8.1-5.51,22.14-11.84,5.77-2.61,11.16-4.24,21.92-7.56,12.79-3.92,19.3-5.86,23.97-5.3,9.76,1.18,9.28,6.22,19.04,7.41,12.47,1.51,25.89-5.13,26.12-5.19,4.78-3.25,13.07-7.95,24.18-9.6,8.57-1.27,15.27-.22,23.67,1.16,16.75,2.76,17.21,5.81,29.8,7.93,14.97,2.52,18.76-1.06,38.83-.26,7.75.3,13.44,2.18,27.87,3.51,5,.45,9.48.78,15.05.73,7.73-.06,10.42-.99,17.31-1.31,7.45-.34,12.88.24,19.36.95,15.14,1.66,22.85,2.58,29.8,7.93,4.82,3.73,3.23,4.78,8.18,9.02,9.91,8.46,22.44,9.45,31.85,10.19,13.72,1.08,16.78-1.72,27.95,1.38,5.41,1.49,9.8,3.55,12.68,4.93,8.29,3.94,14.6,8.36,18.82,11.69,3.79-8.92,6.09-16.17,7.52-21.19,1.16-4.13,1.87-7.41.52-10.75-1.08-2.71-3.98-6.65-3.98-6.65-2.33.45-5.64,1.46-8.81,3.88-4.05,3.1-5.1,6.48-6.76,6.14-1.68-.34-1.42-3.94-3.77-10.96-.97-2.89-1.94-5.75-3.88-8.81-2.02-3.19-4.93-7.75-10.34-9.13-5.15-1.31-9.67.97-10.85,1.62-2.18,1.21-2.82,2.3-6.76,6.14-2.82,2.74-5.23,4.85-6.76,6.14l-11.28,10.23c1.08-5.99.86-10.88.43-14.28-.54-4.39-1.08-8.83-3.57-9.58-2.74-.82-6.16,3.36-6.65,3.98l-6.96,11.2,2.54-23.95c.28-.95,1.36-5.1-.97-9.07-.3-.52-2.8-4.76-6.25-4.61-2.71.11-4.59,2.89-6.76,6.14-2.91,4.33-2.28,5.75-4.72,8.4-2.58,2.78-6.96,5.17-8.81,3.88-2.22-1.53,1.4-6.68-1.62-10.85,0,0-.45-.62-6.25-4.61,0,0-4.35,2.35-6.65,3.98-2.02,1.44-4.63,3.9-6.87,8.29l-10.34,9.17.5-13.57-2.24-13.44-6.14-6.76-6.65,3.98-2.67,10.66-4.72,8.4-3.36-19.58-6.03-8.92-10.1-3.23,3.53,5.08-2.67,10.66-13.85,18.74c-.5-2.91-1.16-7.41-1.53-13.01-.43-7.06.04-9.35-1.53-13.01-1.64-3.85-5.6-9.32-10.34-9.13-2.95.13-5.15,2.41-6.65,3.98-2.02,2.11-2.95,4.29-4.72,8.4,0,0-.26.6-2.48,6.35-2.02.6-4.74,1.08-6.46-.32-2.52-2.07-.06-5.97-1.53-13.01,0,0-.34-1.64-5.81-13.22,0,0-6.01,4.52-9.02,8.18-2.22,2.69-4.65,7.17-5.04,14.84l-1.7,14.04c-1.49-16.52-.73-26.79.5-33.51.39-2.11,1.55-7.99-1.53-13.01-.41-.67-2.89-4.72-6.25-4.61-2.67.09-4.48,2.76-6.76,6.14-.95,1.4-3.06,4.78-4.82,10.55-1.77,5.75-1.49,8.31-2.56,8.51-1.66.28-4.91-5.25-5.92-11.07-.8-4.61.19-7.09-1.72-8.7-1.72-1.46-4.61-1.18-6.46-.32-2.26,1.06-3.21,3.12-4.61,6.25-1.27,2.84-1.53,4.59-2.56,8.51-.54,2.02-1.38,4.95-2.56,8.51l-5.36,21.3-.78-28.06-3.98-6.65-6.57,1.83-2.48,6.35-2.67,10.66-3.68,10.44-2.35-19.36-7.28-5.36-7.88,6.78-.32,6.46-2.5,11.54-12.77-7.97-10.44-6.98-8.61-.43-8.61-.43-8.81,3.88-7.95,6.48-3.1,8.08-3.01,8.48-8.61-.43-5.08-28.28-5.81-13.22-11.54-3.32-.07-.17Z"/>
    <path class="cls-13" d="M937.05,87.68c6.76-3.4,10.64-2.93,13.01-1.59,0,0,2.39,1.36,7.95,13.72.19,4.72.11,10.77-.86,17.72-1.03,7.43-2.28,10.1-.65,13.29,2.05,4.01,6.8,5.28,14.73,7.39,6.27,1.68,7.21,1.01,14.95,2.95,6.59,1.66,9.93,2.54,12.68,5.06,4.44,4.07,5.58,9.63,5.9,11.39.5,2.56.15,3.23-.65,13.29-.78,9.78-.69,12.21-.65,13.29.26,5.77.39,8.66,1.62,11.18,4.01,8.27,15.91,10.75,23.11,12.23,6.93,1.44,8.64.54,12.79,2.84,1.18.67,7.26,4.18,10.21,11.61,1.16,2.93,1.38,5.28,1.72,8.98.56,6.03-.17,10.83-.65,13.29-.69,3.57-1.64,6.14-2.58,8.76-3.1,8.48-4.95,8.96-4.95,13.09s1.7,8.94,1.72,8.98c8.7,2.58,15.83,5.38,21.19,7.71,8.01,3.47,12.75,6.2,14.73,7.39,5.56,3.29,8.36,4.95,10.42,7.17,4.41,4.69,8.74,12.94,7.52,22.59-.17,1.27-1.27,9.22-7.21,15.2-2.63,2.65-3.36,2.05-8.94,6.22-2.78,2.09-7.04,5.58-11.31,10.55-5,5.81-7.58,8.94-7.11,12.99.3,2.71,1.92,5.34,3.98,6.87,3.23,2.37,8.48,2.63,8.48,2.63,2.37.75,10.49,3.64,14.51,11.82,2.8,5.66,2.15,10.9,1.29,17.83-.93,7.41-2.15,17.31-9.8,23.95-4.39,3.81-9.09,5-13.22,6.01-12.86,3.19-20.61-.95-21.62,1.16-1.72,3.64,19.17,20.05,45.81,33.34,16.11,8.03,28.43,12,46.56,17.83,32.52,10.44,47.61,11.44,55.5,11.61,8.92.19,15.44-.5,21.62-1.16,14.47-1.55,34.18-3.64,34.95-9.39.58-4.33-9.73-9.32-25.05-16.78-13.8-6.7-17.19-6.48-25.26-12.34-6.65-4.82-10.64-9.52-16.45-16.37-8.83-10.4-13.24-15.61-13.98-22.89-.5-4.95,1.14-4.87,3.01-17.62,1.51-10.25,2.24-15.35.97-19.94-2.78-10.01-11.41-16.41-14.19-18.48-5.97-4.41-7.95-3.42-10.42-7.17-4.69-7.09-1.96-17.16-1.18-20.05,1.14-4.24,2.91-7.41,4.85-10.88,4.22-7.56,5.58-6.74,7-10.77,3.14-8.94-1.16-20.03-1.18-20.05-5.3-6.7-10.57-11.18-14.41-14.04-5.04-3.73-7.92-5.88-12.58-7.28-4.11-1.25-6.01-.82-10.64-2.74-2.24-.93-4.33-2.26-8.38-4.85-3.77-2.41-6.8-4.35-10.42-7.17-5.88-4.59-8.81-6.87-10.32-9.39-2.95-4.93-.97-7.02-3.32-20.16-1.12-6.33-1.74-9.58-3.66-13.5-1.85-3.81-3.47-5.34-8.05-11.5-5.51-7.41-5.08-8.42-8.05-11.5-2.39-2.46-5.51-5.69-10.42-7.17-1.92-.58-2.35-.37-10.75-.52-8.48-.17-11.31-.45-12.9-.62-6.22-.73-9.32-1.1-10.64-2.74-2.52-3.17.65-6.91.86-17.72.06-3.55.13-8.08-1.51-13.39-2.11-6.93-5.92-11.39-7.95-13.72-3.17-3.64-6.72-7.71-12.47-9.5-1.38-.43-.9-.11-12.9-.62l-12.9-.62h0c4.41,1.98-10.25-2.95-12.58-7.28-2.07-3.88.8-6.72.75-15.51-.02-4.8-.9-8.7-1.62-11.18"/>
    <g>
      <path class="cls-25" d="M806.93,53c-.71-8.4-2.61-9.52-1.55-14.32.17-.8,2.09-8.89,8.27-11.11,3.27-1.18,6.5-.26,11.11,1.06,6.29,1.81,8.83,4.18,9.82,3.21.93-.93-.71-3.79-4.57-11.78-5.23-10.83-5.43-12.17-4.97-13.52,1.62-4.82,10.36-6.78,16.75-5.77,1.51.24,9.6,1.72,12.75,8.03,2.86,5.77-.13,12.15,1.14,12.58,1.51.52,3.49-9.37,11.28-13.65,4.31-2.37,10.77-3.23,16.28-.15,4.09,2.3,7.26,6.55,8.01,10.98.82,4.85-.99,11.24-.99,11.24,0,0-14.75,7.47-14.24,8.85.47,1.23,12.17-6.07,21.43-1.36,5.23,2.67,9.43,9.09,8.83,14.45-.54,4.63-4.82,10.32-4.82,10.32,0,0-3.25,7.02-7.86,12.86-3.83,4.85-6.03,7.62-9.09,7.65-4.39.02-4.91-5.66-10.62-6.7-5.41-.97-12.02,2.82-12.02,2.82,0,0-9.37,2.33-19.3,2.69-5.75.22-5.9-.45-14.56-.26,0,0-2.09.04-9,.28,0,0-8.79-4.87-11.84-11.91-2.11-4.89.67-5.9-.24-16.47h-.02Z"/>
      <path class="cls-23" d="M831.18,49.17c1.21-.86,4.57.26,14.34,9.78.67,10.9,1.79,13.42,2.76,13.5,1.7.15,2.91-7.26,9.78-14.34,1.14-1.18,2-1.9,2.26-2.13,1.59-1.31,5.49-4.48,11.28-5.45,4.97-.84,12.79-.52,13.46,2.05.78,2.99-9.22,4.76-17.49,15.25-2.89,3.66-4.87,8.21-8.83,17.25-3.47,7.95-5.21,11.91-5.94,16.32-1.03,6.33-.02,25.67-.19,19.25.26,5.77.54,11.56.8,17.34l-16.37-1.12c1.01-5.08,2.22-11.97,3.08-20.2.71-6.68,1.77-16.58,1.21-25.99-1.42-24.51-13.35-39.3-10.19-41.52l.04.02Z"/>
    </g>
    <g>
      <path class="cls-25" d="M766.77,86.94c-1.77-6.22-3.27-6.68-3.23-10.53,0-.65.13-7.13,4.13-10.04,2.13-1.55,4.54-1.46,7.99-1.38,4.69.13,6.85,1.42,7.39.5.52-.88-1.06-2.74-5-8.01-5.32-7.17-5.64-8.14-5.53-9.26.41-3.96,6.27-7.17,10.92-7.67,1.1-.11,7.02-.58,10.16,3.57,2.89,3.81,1.74,9.22,2.69,9.3,1.14.11,1.06-7.77,5.88-12.55,2.67-2.65,7.09-4.57,11.41-3.29,3.23.93,6.07,3.53,7.28,6.74,1.31,3.51.99,8.7.99,8.7,0,0-9.26,8.57-8.68,9.5.52.84,7.65-7,14.86-5.23,4.09.99,8.01,5.02,8.38,9.2.32,3.6-1.85,8.74-1.85,8.74,0,0-1.23,5.97-3.6,11.26-1.96,4.41-3.08,6.96-5.23,7.56-3.08.88-4.31-3.32-8.48-2.97-3.94.32-8.03,4.5-8.03,4.5,0,0-6.25,3.6-13.16,5.84-4.03,1.29-4.22.82-10.27,2.67,0,0-1.46.45-6.29,1.98,0,0-6.91-1.96-10.12-6.68-2.22-3.27-.43-4.59-2.65-12.43l.04-.02Z"/>
      <path class="cls-23" d="M783.24,79.28c.73-.88,3.25-.71,11.56,4.57,2.11,8.12,3.27,9.8,3.96,9.69,1.21-.22.95-6.05,4.72-12.77.62-1.12,1.12-1.83,1.27-2.05.93-1.31,3.19-4.46,7.13-6.33,3.38-1.62,8.92-2.91,9.78-1.1,1.01,2.11-5.77,5.41-10.01,14.97-1.49,3.34-2.2,7.15-3.62,14.79-1.25,6.7-1.87,10.04-1.72,13.5.22,5,3.83,19.45,2.76,14.6,1.06,4.33,2.11,8.64,3.17,12.96l-11.67,2.37c-.04-4.05-.24-9.5-.86-15.89-.5-5.19-1.25-12.9-3.06-19.9-4.67-18.26-15.29-27.11-13.39-29.42h0Z"/>
    </g>
    <g>
      <path class="cls-25" d="M1184.96,195.91c-.62-8.4-2.52-9.54-1.4-14.34.19-.8,2.2-8.87,8.38-11.03,3.29-1.14,6.5-.19,11.11,1.18,6.27,1.87,8.79,4.26,9.78,3.32.95-.9-.67-3.79-4.44-11.82-5.13-10.88-5.3-12.23-4.82-13.57,1.66-4.82,10.42-6.68,16.82-5.58,1.51.26,9.58,1.83,12.66,8.16,2.8,5.79-.26,12.15,1.01,12.6,1.51.54,3.6-9.32,11.44-13.55,4.33-2.33,10.79-3.12,16.28.04,4.07,2.35,7.17,6.61,7.88,11.07.78,4.85-1.12,11.24-1.1,11.24,0,0-14.84,7.32-14.32,8.68.47,1.25,12.23-5.94,21.43-1.12,5.21,2.74,9.35,9.2,8.66,14.56-.58,4.61-4.93,10.25-4.93,10.25,0,0-3.32,7-7.99,12.77-3.88,4.8-6.09,7.56-9.15,7.54-4.39,0-4.87-5.71-10.55-6.81-5.38-1.03-12.06,2.69-12.06,2.69,0,0-9.39,2.22-19.32,2.48-5.77.15-5.88-.52-14.56-.41,0,0-2.09.02-9,.17,0,0-8.74-4.97-11.72-12.04-2.07-4.91.73-5.88-.06-16.47l-.02-.02Z"/>
      <path class="cls-23" d="M1209.23,192.34c1.23-.84,4.57.3,14.26,9.93.54,10.92,1.66,13.44,2.61,13.55,1.7.17,2.99-7.21,9.93-14.26,1.14-1.16,2.02-1.87,2.3-2.11,1.62-1.29,5.56-4.41,11.35-5.32,5-.8,12.79-.39,13.44,2.2.75,3.01-9.28,4.65-17.64,15.05-2.93,3.64-4.95,8.14-9.02,17.16-3.55,7.9-5.34,11.87-6.12,16.26-1.1,6.33-.3,25.67-.39,19.25.19,5.79.41,11.56.6,17.36l-16.35-1.29c1.08-5.06,2.35-11.95,3.29-20.16.78-6.65,1.94-16.56,1.49-25.97-1.16-24.51-12.92-39.45-9.73-41.63l-.02-.02Z"/>
    </g>
    <g>
      <path class="cls-25" d="M795.32,378.16c-2.13-8.16-4.2-8.94-3.96-13.85.04-.82.56-9.11,6.25-12.36,3.04-1.72,6.37-1.36,11.13-.84,6.5.71,9.41,2.61,10.21,1.49.75-1.06-1.34-3.62-6.5-10.83-7-9.78-7.43-11.07-7.21-12.47.78-5.04,9.04-8.44,15.55-8.53,1.53,0,9.76.06,13.93,5.75,3.81,5.19,1.94,12,3.25,12.21,1.57.26,1.85-9.82,8.81-15.38,3.85-3.08,10.06-5.02,16-2.91,4.41,1.57,8.25,5.21,9.76,9.45,1.64,4.63.95,11.24.95,11.24,0,0-13.27,9.88-12.51,11.13.69,1.14,10.96-8.05,20.89-4.97,5.62,1.74,10.85,7.34,11.16,12.75.26,4.65-3.01,10.98-3.01,10.98,0,0-2,7.47-5.56,14-2.95,5.43-4.63,8.53-7.65,9.07-4.33.78-5.81-4.74-11.61-4.78-5.49-.04-11.37,4.82-11.37,4.82,0,0-8.83,3.88-18.56,5.92-5.64,1.18-5.88.56-14.39,2.22,0,0-2.05.41-8.81,1.79,0,0-9.5-3.29-13.7-9.73-2.93-4.46-.34-5.92-3.04-16.19v.02Z"/>
      <path class="cls-23" d="M818.56,370.26c1.06-1.06,4.54-.54,15.81,7.19,2.52,10.64,4.05,12.92,5.02,12.83,1.7-.15,1.64-7.65,7.19-15.81.93-1.36,1.64-2.22,1.87-2.48,1.34-1.57,4.65-5.34,10.19-7.28,4.76-1.68,12.51-2.69,13.61-.26,1.29,2.82-8.29,6.25-14.64,17.98-2.22,4.11-3.4,8.92-5.77,18.5-2.07,8.42-3.12,12.62-3.08,17.08.06,6.42,4.35,25.3,3.08,19.02,1.25,5.64,2.5,11.31,3.73,16.95l-16.32,1.68c.13-5.17.15-12.17-.39-20.44-.43-6.7-1.08-16.65-3.23-25.82-5.56-23.9-19.83-36.48-17.1-39.17l.04.02Z"/>
    </g>
    <g>
      <path class="cls-25" d="M536.9,151.92c-2.11-8.16-4.16-8.94-3.9-13.87.04-.82.58-9.11,6.31-12.34,3.04-1.72,6.37-1.34,11.13-.8,6.5.73,9.41,2.65,10.21,1.53.78-1.06-1.34-3.62-6.46-10.85-6.98-9.8-7.39-11.09-7.15-12.51.78-5.04,9.09-8.42,15.57-8.46,1.53,0,9.76.09,13.91,5.79,3.79,5.21,1.89,12,3.21,12.21,1.57.26,1.89-9.82,8.85-15.35,3.85-3.06,10.08-4.97,16.02-2.84,4.41,1.59,8.25,5.25,9.71,9.5,1.62,4.63.9,11.26.9,11.26,0,0-13.31,9.84-12.56,11.09.67,1.14,11-8.01,20.89-4.89,5.6,1.77,10.81,7.39,11.11,12.79.24,4.65-3.04,10.96-3.04,10.96,0,0-2.02,7.47-5.6,13.98-2.97,5.43-4.67,8.51-7.69,9.04-4.33.75-5.79-4.76-11.59-4.82-5.49-.06-11.39,4.78-11.39,4.78,0,0-8.85,3.85-18.58,5.86-5.64,1.16-5.88.54-14.39,2.15,0,0-2.05.39-8.83,1.77,0,0-9.48-3.34-13.68-9.78-2.91-4.46-.32-5.92-2.97-16.19h-.02Z"/>
      <path class="cls-23" d="M560.16,144.1c1.06-1.03,4.54-.52,15.79,7.26,2.48,10.64,4.01,12.94,4.97,12.86,1.7-.13,1.66-7.62,7.26-15.79.93-1.36,1.66-2.2,1.89-2.48,1.36-1.57,4.67-5.32,10.23-7.26,4.78-1.66,12.53-2.65,13.61-.22,1.27,2.82-8.31,6.22-14.71,17.94-2.24,4.09-3.45,8.89-5.84,18.48-2.11,8.42-3.17,12.62-3.14,17.08.02,6.42,4.24,25.33,3.01,19.02,1.23,5.66,2.45,11.31,3.66,16.97l-16.32,1.62c.15-5.17.19-12.17-.32-20.44-.41-6.7-1.03-16.65-3.12-25.84-5.47-23.93-19.7-36.55-16.95-39.24l-.02.04Z"/>
    </g>
    <g>
      <path class="cls-25" d="M1249.2,231.83c.65-6.44-.58-7.41.84-10.98.24-.6,2.74-6.59,7.54-7.82,2.54-.65,4.76.3,7.92,1.64,4.31,1.83,5.84,3.83,6.68,3.17.8-.62,0-2.93-1.7-9.28-2.33-8.61-2.28-9.65-1.77-10.64,1.83-3.55,8.46-4.37,12.96-3.12,1.06.3,6.74,2.02,8.16,7.04,1.29,4.59-1.77,9.22-.9,9.65,1.01.52,3.83-6.85,10.08-9.52,3.47-1.49,8.27-1.66,11.84,1.12,2.65,2.05,4.37,5.51,4.31,8.94-.06,3.73-2.26,8.46-2.26,8.46,0,0-11.76,4.57-11.54,5.64.17.97,9.67-3.7,15.74.58,3.45,2.43,5.6,7.6,4.41,11.63-1.01,3.47-4.93,7.47-4.93,7.47,0,0-3.32,5.08-7.47,9.17-3.45,3.4-5.43,5.34-7.65,5.13-3.21-.3-2.8-4.65-6.8-5.88-3.79-1.14-9.11,1.25-9.11,1.25,0,0-7.13,1.06-14.39.6-4.22-.28-4.22-.8-10.53-1.29,0,0-1.53-.13-6.57-.47,0,0-5.73-4.35-6.98-9.93-.86-3.88,1.29-4.41,2.09-12.51l.02-.04Z"/>
      <path class="cls-23" d="M1267.33,230.73c.99-.56,3.29.54,9.09,8.48-1.01,8.33-.54,10.32.15,10.47,1.21.24,3.1-5.28,9.07-10.16.99-.82,1.7-1.29,1.94-1.44,1.34-.88,4.61-2.99,8.94-3.29,3.73-.26,9.37.56,9.5,2.56.15,2.35-7.34,2.91-14.79,10.25-2.61,2.56-4.67,5.86-8.79,12.43-3.62,5.77-5.43,8.66-6.55,11.95-1.62,4.74-3.55,19.49-2.78,14.6-.6,4.41-1.21,8.81-1.81,13.22l-11.74-2.07c1.44-3.79,3.25-8.92,5.02-15.1,1.42-5.02,3.55-12.47,4.46-19.64,2.33-18.71-4.29-30.84-1.7-32.28v.02Z"/>
    </g>
    <g>
      <path class="cls-25" d="M735.41,398c-1.77-6.22-3.27-6.68-3.23-10.53,0-.65.13-7.13,4.13-10.04,2.13-1.55,4.54-1.46,7.99-1.38,4.69.13,6.85,1.42,7.39.5.52-.88-1.06-2.74-5-8.01-5.32-7.17-5.64-8.14-5.53-9.26.41-3.96,6.27-7.17,10.92-7.67,1.1-.11,7.02-.58,10.16,3.57,2.89,3.81,1.74,9.22,2.69,9.3,1.14.11,1.06-7.77,5.88-12.55,2.67-2.65,7.09-4.57,11.41-3.29,3.23.93,6.07,3.53,7.28,6.74,1.31,3.51.99,8.7.99,8.7,0,0-9.26,8.57-8.68,9.5.52.84,7.65-7,14.86-5.23,4.09.99,8.01,5.02,8.38,9.2.32,3.6-1.85,8.74-1.85,8.74,0,0-1.23,5.97-3.6,11.26-1.96,4.41-3.08,6.96-5.23,7.56-3.08.88-4.31-3.32-8.48-2.97-3.94.32-8.03,4.5-8.03,4.5,0,0-6.25,3.6-13.16,5.84-4.03,1.29-4.22.82-10.27,2.67,0,0-1.46.45-6.29,1.98,0,0-6.91-1.96-10.12-6.68-2.22-3.27-.43-4.59-2.65-12.43l.04-.02Z"/>
      <path class="cls-23" d="M751.89,390.33c.73-.88,3.25-.71,11.56,4.57,2.11,8.12,3.27,9.8,3.96,9.69,1.21-.22.95-6.05,4.72-12.77.62-1.12,1.12-1.83,1.27-2.05.93-1.31,3.19-4.46,7.13-6.33,3.38-1.62,8.92-2.91,9.78-1.1,1.01,2.11-5.77,5.41-10.01,14.97-1.49,3.34-2.2,7.15-3.62,14.79-1.25,6.7-1.87,10.04-1.72,13.5.22,5,3.83,19.45,2.76,14.6,1.06,4.33,2.11,8.64,3.17,12.96l-11.67,2.37c-.04-4.05-.24-9.5-.86-15.89-.5-5.19-1.25-12.9-3.06-19.9-4.67-18.26-15.29-27.11-13.39-29.42h0Z"/>
    </g>
    <g>
      <path class="cls-25" d="M1136.38,208.94c-.19-6.46-1.55-7.28-.58-11,.15-.62,1.85-6.89,6.46-8.72,2.43-.97,4.76-.32,8.08.6,4.52,1.27,6.29,3.04,7.04,2.28.71-.73-.37-2.91-2.89-8.98-3.42-8.23-3.51-9.26-3.12-10.32,1.36-3.75,7.82-5.45,12.45-4.78,1.1.15,6.96,1.14,9,5.92,1.87,4.39-.54,9.37.37,9.67,1.08.37,2.91-7.28,8.76-10.75,3.23-1.92,7.97-2.71,11.89-.43,2.91,1.68,5.04,4.89,5.43,8.29.41,3.7-1.14,8.68-1.14,8.68,0,0-11.05,6.07-10.72,7.11.3.95,9.11-4.93,15.68-1.46,3.73,1.96,6.55,6.81,5.9,10.96-.56,3.57-3.92,8.03-3.92,8.03,0,0-2.63,5.47-6.22,10.06-2.97,3.81-4.67,5.99-6.91,6.07-3.21.11-3.38-4.26-7.49-4.93-3.9-.65-8.87,2.41-8.87,2.41,0,0-6.93,1.98-14.19,2.46-4.22.28-4.29-.24-10.62.09,0,0-1.53.09-6.57.39,0,0-6.25-3.57-8.21-8.94-1.36-3.73.71-4.54.45-12.68l-.04-.02Z"/>
      <path class="cls-23" d="M1154.23,205.5c.93-.69,3.32.11,10.1,7.24.06,8.4.8,10.32,1.51,10.36,1.23.09,2.39-5.64,7.67-11.26.88-.93,1.53-1.51,1.74-1.68,1.21-1.06,4.18-3.55,8.44-4.41,3.66-.75,9.35-.67,9.76,1.31.45,2.3-6.91,3.85-13.33,12.1-2.24,2.89-3.85,6.42-7.11,13.46-2.84,6.18-4.26,9.28-4.95,12.68-.99,4.91-.99,19.79-.86,14.84-.02,4.46-.04,8.89-.06,13.35l-11.91-.54c.93-3.94,2.07-9.26,3.01-15.63.78-5.15,1.92-12.81,1.87-20.05-.11-18.84-8.25-30.02-5.88-31.79v.02Z"/>
    </g>
    <g>
      <path class="cls-9" d="M961.3,247.38c-.34.32,1.77,1.87,2.99,4.93,1.01,2.52.99,4.97.97,6.61,0,2.18-.02,3.25-.19,4.18-.22,1.18-.54,2.07-.11,2.39.47.34,1.57-.26,1.96-.5,3.32-2.15,3.14-11.18-1.83-15.61-1.53-1.36-3.49-2.26-3.79-1.98v-.02Z"/>
      <path class="cls-10" d="M964.18,244.09c-.19-.02-.32-1.57.15-2.97.17-.52.65-1.87,2.09-2.89,1.81-1.25,3.81-1.06,4.59-.97.99.11,2.61.26,3.17,1.36.28.52.34,1.31-.09,1.79-.58.62-1.55.17-3.25.43-1.83.28-3.4,1.23-3.32,1.64.11.43,1.98-.24,3.83.78.86.47,1.4,1.16,2.45,2.5.69.88,1.03,1.31,1.21,1.85.54,1.7-.37,3.57-.82,3.53-.24,0-.26-.52-.58-1.23-.58-1.21-1.59-2-2.45-2.5h0c1.46.69-3.66-3.34-4.44-2,0,.04,1.03.34,1.87,1.29.41.47.47.73,1.18,2.46.84,2.05.99,2.26,1.14,3.04.19.97.3,1.68-.11,2.39-.52.84-1.64,1.36-2,1.1s.43-1.12.11-2.39c-.19-.78-.62-1.01-1.21-1.85-.43-.65-.95-1.62-1.14-3.04h0s-.82,1.27-1.4,2.33c-.84,1.49-1.27,2.22-1.44,2.91-.41,1.72.17,2.89-.15,2.97-.3.09-1.06-.82-1.21-1.85-.04-.32,0-.43.06-1.18.13-1.72-.09-1.87.11-2.39.47-1.23,2.11-1.51,2.02-1.7-.11-.26-3.55,0-5.92,2.09-.75.67-1.53,1.64-2.05,2.28-1.27,1.57-1.64,2.37-2.05,2.28-.5-.11-.73-1.36-.54-2.41.22-1.03.84-1.66,2.09-2.89,1.31-1.29,1.64-7.09,3.47-4.61"/>
      <path class="cls-10" d="M959.53,246.24s-1.53.24-2.61.47c-2.09.43-2.22.73-3.94,1.01-1.94.3-2.39,0-2.58-.13-.54-.41-.82-1.21-.56-1.81.06-.15.32-.65,2-1.1,1.57-.41,2.22-.19,3.9-.41.28-.04,3.25-.41,3.29-1.03.02-.52-1.98-1.1-3.17-1.36-1.74-.34-2.5-.11-3.21-.75-.45-.43-.78-1.16-.56-1.81.26-.75,1.1-1.03,1.36-1.12.37-.13.9-.24,2.58.13,1.31.28,1.96.41,2.56.73,2.37,1.23,2.95,4.35,3.01,4.33.04,0-.43-.78-.56-1.81-.19-1.55.52-1.94.15-2.97-.39-1.06-1.38-1.36-1.21-1.85.17-.47,1.21-.54,1.31-.54.86-.02,1.49.41,1.92.69,0,0,.78.52,1.23,1.25,1.34,2.11.04,5.99-.3,5.97"/>
    </g>
    <path class="cls-12" d="M943.16,274.08s-2.22.34-3.79.69c-3.01.62-3.23,1.08-5.71,1.46-2.8.43-3.47,0-3.75-.19-.8-.6-1.18-1.77-.82-2.65.09-.22.45-.95,2.89-1.59,2.26-.6,3.21-.28,5.66-.6.41-.04,4.72-.6,4.76-1.51.04-.75-2.86-1.62-4.59-1.96-2.52-.52-3.64-.15-4.63-1.1-.67-.62-1.14-1.68-.82-2.65.37-1.1,1.62-1.53,1.96-1.64.52-.17,1.31-.34,3.75.19,1.89.41,2.84.6,3.7,1.06,3.45,1.79,4.29,6.33,4.39,6.31.04,0-.6-1.14-.82-2.65-.3-2.24.75-2.82.22-4.33-.56-1.53-2-1.96-1.74-2.69.26-.71,1.77-.78,1.92-.78"/>
    <g>
      <path class="cls-9" d="M929.88,239.15c-.37.39,1.83,2.11,3.1,5.56,1.06,2.84,1.01,5.62.99,7.49-.02,2.46-.04,3.68-.24,4.72-.24,1.36-.58,2.35-.13,2.69.5.39,1.66-.3,2.07-.58,3.47-2.46,3.34-12.68-1.83-17.68-1.59-1.53-3.64-2.56-3.94-2.22l-.02.02Z"/>
      <path class="cls-11" d="M929.53,226.3c.88-.04,1.55.45,1.98.78,0,0,.8.58,1.29,1.42,1.4,2.39,0,6.78-.32,6.74-.22-.02-.32-1.79.17-3.38.17-.6.67-2.13,2.2-3.27,1.89-1.42,3.98-1.21,4.78-1.12,1.03.11,2.71.3,3.32,1.51.28.58.37,1.49-.11,2.02-.6.71-1.62.19-3.4.52-1.92.34-3.57,1.42-3.47,1.85.11.47,2.09-.28,4.01.88.9.54,1.46,1.31,2.56,2.82.71.99,1.08,1.49,1.25,2.09.54,1.92-.41,4.05-.88,4.01-.24,0-.26-.58-.6-1.38-.6-1.38-1.66-2.26-2.56-2.82h0c1.53.78-3.81-3.77-4.63-2.26-.02.04,1.08.39,1.96,1.44.43.52.5.84,1.23,2.76.86,2.33,1.03,2.54,1.18,3.45.19,1.1.32,1.92-.13,2.69-.54.95-1.72,1.53-2.09,1.25-.39-.3.45-1.27.13-2.69-.19-.88-.65-1.14-1.25-2.09-.45-.73-.97-1.83-1.18-3.45h0s-.86,1.46-1.49,2.63c-.9,1.68-1.34,2.52-1.51,3.32-.43,1.94.17,3.27-.17,3.38-.3.11-1.1-.93-1.25-2.09-.04-.37,0-.47.06-1.36.15-1.96-.06-2.11.13-2.69.5-1.4,2.2-1.72,2.13-1.92-.11-.28-3.7,0-6.2,2.39-.78.75-1.62,1.87-2.15,2.61-1.34,1.79-1.72,2.69-2.15,2.61-.52-.11-.78-1.53-.54-2.74.22-1.16.88-1.9,2.2-3.27,1.38-1.46,1.74-8.03,3.64-5.23"/>
      <path class="cls-11" d="M927.61,237.69s-1.59.28-2.74.54c-2.18.5-2.33.84-4.11,1.14-2.02.34-2.5.02-2.69-.13-.56-.47-.84-1.38-.58-2.07.06-.17.32-.75,2.09-1.25,1.64-.47,2.3-.24,4.07-.47.28-.04,3.4-.47,3.45-1.18.02-.58-2.05-1.25-3.32-1.51-1.83-.39-2.63-.11-3.34-.84-.47-.47-.82-1.31-.58-2.07.28-.86,1.16-1.18,1.42-1.29.39-.15.95-.26,2.69.13,1.38.3,2.05.47,2.67.8,2.48,1.38,3.08,4.91,3.14,4.89.04,0-.43-.88-.58-2.07-.22-1.74.56-2.2.17-3.38-.39-1.18-1.44-1.53-1.25-2.09.19-.54,1.27-.6,1.38-.6"/>
    </g>
    <g>
      <path class="cls-9" d="M917.64,263.1c-.34.37,1.81,2.07,3.06,5.47,1.03,2.8.99,5.53.97,7.37-.02,2.41-.04,3.64-.24,4.65-.24,1.34-.56,2.3-.13,2.65.5.39,1.64-.28,2.02-.56,3.42-2.41,3.27-12.47-1.81-17.38-1.55-1.51-3.57-2.52-3.88-2.18v-.02Z"/>
      <path class="cls-8" d="M917.75,251.67c.88-.04,1.53.45,1.96.75,0,0,.8.58,1.27,1.4,1.38,2.35,0,6.68-.32,6.63-.22-.02-.32-1.74.17-3.32.17-.58.67-2.09,2.15-3.23,1.85-1.4,3.92-1.18,4.72-1.1,1.01.11,2.67.28,3.25,1.49.28.56.37,1.46-.11,1.98-.6.69-1.59.19-3.36.5-1.87.32-3.51,1.38-3.42,1.83.11.47,2.05-.28,3.94.86.88.54,1.42,1.29,2.52,2.78.71.97,1.06,1.46,1.23,2.05.54,1.9-.39,3.98-.86,3.94-.24,0-.26-.56-.6-1.36-.58-1.36-1.64-2.22-2.52-2.78h0c1.51.78-3.75-3.7-4.54-2.22,0,.04,1.06.39,1.92,1.42.43.52.5.82,1.21,2.71.86,2.28,1.01,2.5,1.16,3.38.19,1.08.3,1.87-.13,2.65-.54.93-1.7,1.51-2.05,1.23-.39-.28.45-1.25.13-2.65-.19-.86-.65-1.12-1.23-2.05-.45-.71-.95-1.81-1.16-3.38h0s-.84,1.42-1.46,2.58c-.88,1.66-1.31,2.48-1.49,3.25-.43,1.92.17,3.21-.17,3.32-.3.09-1.08-.93-1.23-2.05-.04-.37,0-.47.06-1.34.15-1.92-.06-2.09.13-2.65.5-1.38,2.18-1.7,2.09-1.9-.11-.28-3.64,0-6.09,2.37-.78.73-1.59,1.83-2.11,2.56-1.31,1.77-1.7,2.65-2.11,2.56-.5-.11-.75-1.51-.54-2.69.22-1.16.86-1.85,2.15-3.23,1.36-1.44,1.72-7.9,3.57-5.15"/>
      <path class="cls-8" d="M915.88,262.86s-1.57.28-2.69.54c-2.13.5-2.28.84-4.05,1.14-1.98.34-2.45.02-2.65-.13-.56-.45-.84-1.36-.56-2.02.06-.15.32-.73,2.05-1.23,1.62-.47,2.28-.22,4.01-.47.28-.04,3.36-.47,3.38-1.16.02-.58-2.02-1.23-3.25-1.49-1.79-.39-2.58-.11-3.29-.82-.47-.47-.8-1.29-.56-2.02.26-.84,1.14-1.16,1.4-1.27.37-.15.93-.26,2.65.13,1.36.3,2.02.45,2.63.8,2.43,1.36,3.01,4.82,3.08,4.8.04,0-.43-.86-.56-2.02-.19-1.72.56-2.18.17-3.32-.39-1.16-1.42-1.49-1.23-2.05.17-.54,1.25-.6,1.36-.6"/>
    </g>
    <g>
      <path class="cls-9" d="M1201.37,333.67c-.34.32,1.77,1.87,2.99,4.93,1.01,2.52.99,4.97.97,6.61,0,2.18-.02,3.25-.19,4.18-.22,1.18-.54,2.07-.11,2.39.47.34,1.57-.26,1.96-.5,3.32-2.15,3.14-11.18-1.83-15.61-1.53-1.36-3.49-2.26-3.79-1.98v-.02Z"/>
      <path class="cls-10" d="M1199.63,332.53s-1.53.24-2.61.47c-2.09.43-2.22.73-3.94,1.01-1.94.3-2.39,0-2.58-.13-.54-.41-.82-1.21-.56-1.81.06-.15.32-.65,2-1.1,1.57-.41,2.22-.19,3.9-.41.28-.04,3.25-.41,3.29-1.03.02-.52-1.98-1.1-3.17-1.36-1.74-.34-2.5-.11-3.21-.75-.45-.43-.78-1.16-.56-1.81.26-.75,1.1-1.03,1.36-1.12.37-.13.9-.24,2.58.13,1.31.28,1.96.41,2.56.73,2.37,1.23,2.95,4.35,3.01,4.33.04,0-.43-.78-.56-1.81-.19-1.55.52-1.94.15-2.97-.39-1.06-1.38-1.36-1.21-1.85.17-.47,1.21-.54,1.31-.54.86-.02,1.49.41,1.92.69,0,0,.78.52,1.23,1.25,1.34,2.11.04,5.99-.3,5.97-.19-.02-.32-1.57.15-2.97.17-.52.65-1.87,2.09-2.89,1.81-1.25,3.81-1.06,4.59-.97.99.11,2.61.26,3.17,1.36.28.52.34,1.31-.09,1.79-.58.62-1.55.17-3.25.43-1.83.28-3.4,1.23-3.32,1.64.11.43,1.98-.24,3.83.78.86.47,1.4,1.16,2.45,2.5.69.88,1.03,1.31,1.21,1.85.54,1.7-.37,3.57-.82,3.53-.24,0-.26-.52-.58-1.23-.58-1.21-1.59-2-2.45-2.5h0c1.46.69-3.66-3.34-4.44-2,0,.04,1.03.34,1.87,1.29.41.47.47.73,1.18,2.46.84,2.05.99,2.26,1.14,3.04.19.97.3,1.68-.11,2.39-.52.84-1.64,1.36-2,1.1s.43-1.12.11-2.39c-.19-.78-.62-1.01-1.21-1.85-.43-.65-.95-1.62-1.14-3.04h0s-.82,1.27-1.4,2.33c-.84,1.49-1.27,2.22-1.44,2.91-.41,1.72.17,2.89-.15,2.97-.3.09-1.06-.82-1.21-1.85-.04-.32,0-.43.06-1.18.13-1.72-.09-1.87.11-2.39.47-1.23,2.11-1.51,2.02-1.7-.11-.26-3.55,0-5.92,2.09-.75.67-1.53,1.64-2.05,2.28-1.27,1.57-1.64,2.37-2.05,2.28-.5-.11-.73-1.36-.54-2.41.22-1.03.84-1.66,2.09-2.89,1.31-1.29,1.64-7.09,3.47-4.61"/>
    </g>
    <g>
      <path class="cls-9" d="M1174.75,346.55c-.34.37,1.81,2.07,3.06,5.47,1.03,2.8.99,5.53.97,7.37-.02,2.41-.04,3.64-.24,4.65-.24,1.34-.56,2.3-.13,2.65.5.39,1.64-.28,2.02-.56,3.42-2.41,3.27-12.47-1.81-17.38-1.55-1.51-3.57-2.52-3.88-2.18v-.02Z"/>
      <path class="cls-8" d="M1174.88,335.12c.88-.04,1.53.45,1.96.75,0,0,.8.58,1.27,1.4,1.38,2.35,0,6.68-.32,6.63-.22-.02-.32-1.74.17-3.32.17-.58.67-2.09,2.15-3.23,1.85-1.4,3.92-1.18,4.72-1.1,1.01.11,2.67.28,3.25,1.49.28.56.37,1.46-.11,1.98-.6.69-1.59.19-3.36.5-1.87.32-3.51,1.38-3.42,1.83.11.47,2.05-.28,3.94.86.88.54,1.42,1.29,2.52,2.78.71.97,1.06,1.46,1.23,2.05.54,1.9-.39,3.98-.86,3.94-.24,0-.26-.56-.6-1.36-.58-1.36-1.64-2.22-2.52-2.78h0c1.51.78-3.75-3.7-4.54-2.22,0,.04,1.06.39,1.92,1.42.43.52.5.82,1.21,2.71.86,2.28,1.01,2.5,1.16,3.38.19,1.08.3,1.87-.13,2.65-.54.93-1.7,1.51-2.05,1.23-.39-.28.45-1.25.13-2.65-.19-.86-.65-1.12-1.23-2.05-.45-.71-.95-1.81-1.16-3.38h0s-.84,1.42-1.46,2.58c-.88,1.66-1.31,2.48-1.49,3.25-.43,1.92.17,3.21-.17,3.32-.3.09-1.08-.93-1.23-2.05-.04-.37,0-.47.06-1.34.15-1.92-.06-2.09.13-2.65.5-1.38,2.18-1.7,2.09-1.9-.11-.28-3.64,0-6.09,2.37-.78.73-1.59,1.83-2.11,2.56-1.31,1.77-1.7,2.65-2.11,2.56-.5-.11-.75-1.51-.54-2.69.22-1.16.86-1.85,2.15-3.23,1.36-1.44,1.72-7.9,3.57-5.15"/>
      <path class="cls-8" d="M1172.99,346.31s-1.57.28-2.69.54c-2.13.5-2.28.84-4.05,1.14-1.98.34-2.45.02-2.65-.13-.56-.45-.84-1.36-.56-2.02.06-.15.32-.73,2.05-1.23,1.62-.47,2.28-.22,4.01-.47.28-.04,3.36-.47,3.38-1.16.02-.58-2.02-1.23-3.25-1.49-1.79-.39-2.58-.11-3.29-.82-.47-.47-.8-1.29-.56-2.02.26-.84,1.14-1.16,1.4-1.27.37-.15.93-.26,2.65.13,1.36.3,2.02.45,2.63.8,2.43,1.36,3.01,4.82,3.08,4.8.04,0-.43-.86-.56-2.02-.19-1.72.56-2.18.17-3.32-.39-1.16-1.42-1.49-1.23-2.05.17-.54,1.25-.6,1.36-.6"/>
    </g>
    <g>
      <path class="cls-9" d="M1046.64,155.38c-.37.39,1.83,2.11,3.1,5.56,1.06,2.84,1.01,5.62.99,7.49-.02,2.46-.04,3.68-.24,4.72-.24,1.36-.58,2.35-.13,2.69.5.39,1.66-.3,2.07-.58,3.47-2.46,3.34-12.68-1.83-17.68-1.59-1.53-3.64-2.56-3.94-2.22l-.02.02Z"/>
      <path class="cls-11" d="M1046.3,142.53c.88-.04,1.55.45,1.98.78,0,0,.8.58,1.29,1.42,1.4,2.39,0,6.78-.32,6.74-.22-.02-.32-1.79.17-3.38.17-.6.67-2.13,2.2-3.27,1.89-1.42,3.98-1.21,4.78-1.12,1.03.11,2.71.3,3.32,1.51.28.58.37,1.49-.11,2.02-.6.71-1.62.19-3.4.52-1.92.34-3.57,1.42-3.47,1.85.11.47,2.09-.28,4.01.88.9.54,1.46,1.31,2.56,2.82.71.99,1.08,1.49,1.25,2.09.54,1.92-.41,4.05-.88,4.01-.24,0-.26-.58-.6-1.38-.6-1.38-1.66-2.26-2.56-2.82h0c1.53.78-3.81-3.77-4.63-2.26-.02.04,1.08.39,1.96,1.44.43.52.5.84,1.23,2.76.86,2.33,1.03,2.54,1.18,3.45.19,1.1.32,1.92-.13,2.69-.54.95-1.72,1.53-2.09,1.25-.39-.3.45-1.27.13-2.69-.19-.88-.65-1.14-1.25-2.09-.45-.73-.97-1.83-1.18-3.45h0s-.86,1.46-1.49,2.63c-.9,1.68-1.34,2.52-1.51,3.32-.43,1.94.17,3.27-.17,3.38-.3.11-1.1-.93-1.25-2.09-.04-.37,0-.47.06-1.36.15-1.96-.06-2.11.13-2.69.5-1.4,2.2-1.72,2.13-1.92-.11-.28-3.7,0-6.2,2.39-.78.75-1.62,1.87-2.15,2.61-1.34,1.79-1.72,2.69-2.15,2.61-.52-.11-.78-1.53-.54-2.74.22-1.16.88-1.9,2.2-3.27,1.38-1.46,1.74-8.03,3.64-5.23"/>
      <path class="cls-11" d="M1044.38,153.92s-1.59.28-2.74.54c-2.18.5-2.33.84-4.11,1.14-2.02.34-2.5.02-2.69-.13-.56-.47-.84-1.38-.58-2.07.06-.17.32-.75,2.09-1.25,1.64-.47,2.3-.24,4.07-.47.28-.04,3.4-.47,3.45-1.18.02-.58-2.05-1.25-3.32-1.51-1.83-.39-2.63-.11-3.34-.84-.47-.47-.82-1.31-.58-2.07.28-.86,1.16-1.18,1.42-1.29.39-.15.95-.26,2.69.13,1.38.3,2.05.47,2.67.8,2.48,1.38,3.08,4.91,3.14,4.89.04,0-.43-.88-.58-2.07-.22-1.74.56-2.2.17-3.38-.39-1.18-1.44-1.53-1.25-2.09.19-.54,1.27-.6,1.38-.6"/>
    </g>
    <path class="cls-9" d="M946.37,275.1c-.5.47,2.56,2.71,4.35,7.17,1.46,3.66,1.42,7.24,1.4,9.63-.02,3.17-.04,4.74-.3,6.07-.32,1.72-.8,3.01-.17,3.47.69.5,2.28-.37,2.84-.73,4.8-3.12,4.57-16.28-2.65-22.74-2.2-1.98-5.06-3.32-5.49-2.89l.02.02Z"/>
    <path class="cls-12" d="M945.77,259.44c1.23-.04,2.15.58,2.76,1.01,0,0,1.12.78,1.79,1.83,1.94,3.06.04,8.72-.43,8.68-.3-.04-.45-2.28.22-4.33.26-.75.93-2.74,3.01-4.2,2.61-1.83,5.53-1.53,6.63-1.42,1.42.15,3.77.39,4.59,1.96.39.75.52,1.92-.13,2.61-.84.9-2.24.24-4.72.65-2.65.41-4.95,1.79-4.8,2.37.15.6,2.89-.37,5.58,1.14,1.25.71,2.02,1.68,3.57,3.66.99,1.27,1.51,1.92,1.74,2.69.78,2.48-.54,5.19-1.18,5.17-.32,0-.37-.75-.86-1.79-.84-1.77-2.33-2.91-3.57-3.66h0c2.13,1.01-5.32-4.87-6.42-2.93-.02.04,1.49.52,2.71,1.87.6.67.69,1.08,1.7,3.55,1.21,2.99,1.44,3.27,1.66,4.44.26,1.4.45,2.46-.17,3.47-.75,1.23-2.37,1.96-2.89,1.59-.54-.39.62-1.64.17-3.47-.28-1.14-.93-1.46-1.74-2.69-.65-.95-1.36-2.37-1.66-4.44h0s-1.18,1.87-2.05,3.38c-1.23,2.15-1.85,3.23-2.09,4.24-.58,2.5.26,4.2-.22,4.33-.43.13-1.53-1.21-1.74-2.69-.06-.47,0-.62.09-1.74.19-2.5-.11-2.71.17-3.47.69-1.81,3.04-2.2,2.93-2.46-.15-.37-5.15-.02-8.59,3.06-1.08.97-2.24,2.39-2.97,3.34-1.83,2.28-2.37,3.45-2.97,3.34-.71-.15-1.08-1.98-.78-3.51.3-1.51,1.21-2.43,3.01-4.2,1.92-1.87,2.39-10.32,5.02-6.72"/>
  </g>
  <g id="Joshuas_world" data-name="Joshuas world">
    <g>
      <path class="cls-19" d="M1036.56,1960.55c2.09-4.05-3.62-7.52-4.31-17.23-.84-11.82,6.55-21.49,6.46-21.54-.11-.04-3.9,14.36-15.07,25.84-8.51,8.72-15.68,10.04-15.07,12.92,1.06,5.04,24.23,7.32,28,0Z"/>
      <path class="cls-7" d="M928.97,1951.94l6.4-2.15c3.19-.37,6.48-.71,9.91-1.01,11.95-1.03,25.24-1.57,39.62-1.14,16.8.47,31.98,2.15,45.22,4.31-3.25-2.89-5.23-5.86-6.48-8.42-6.44-13.31-.86-31.74,12.94-47.57-5.43-.17-8.42,1.44-10.1,2.76-9.5,7.54-.99,25.63-11.44,38.16-2.95,3.53-6.25,6.03-8.61,6.46l-23.69,4.31"/>
      <path class="cls-22" d="M1047.33,1906.72c-3.9,4.95-22.72,27.85-55.99,32.3-39.9,5.34-67.53-20.31-71.07-23.69"/>
      <path class="cls-22" d="M1048.79,1898.73c-3.9,4.95-22.72,27.85-55.99,32.3-39.9,5.34-67.53-20.31-71.07-23.69"/>
      <line class="cls-7" x1="933.19" y1="1967.01" x2="917.04" y2="1909.52"/>
      <g>
        <path class="cls-25" d="M1212.14,1913.07c3.17,7.82,5.3,8.31,5.71,13.22.06.82.62,9.11-4.61,13.05-2.78,2.09-6.14,2.18-10.94,2.26-6.53.13-9.67-1.38-10.32-.17-.62,1.16,1.79,3.42,7.84,9.91,8.21,8.81,8.79,10.01,8.74,11.46-.11,5.08-7.9,9.54-14.32,10.44-1.51.22-9.69,1.18-14.56-3.92-4.44-4.67-3.47-11.65-4.8-11.69-1.59-.06-.58,9.99-6.76,16.39-3.42,3.53-9.32,6.27-15.51,4.93-4.59-.99-8.85-4.11-10.9-8.12-2.22-4.37-2.37-11.05-2.37-11.05,0,0,11.89-11.5,10.98-12.64-.82-1.03-9.84,9.39-20.07,7.6-5.79-1.01-11.69-5.9-12.68-11.22-.86-4.57,1.57-11.28,1.57-11.28,0,0,1.03-7.67,3.7-14.6,2.24-5.77,3.51-9.04,6.42-9.97,4.2-1.34,6.37,3.96,12.12,3.25,5.45-.67,10.66-6.25,10.66-6.25,0,0,8.27-5,17.64-8.27,5.45-1.9,5.77-1.29,13.98-4.05,0,0,1.98-.67,8.51-2.91,0,0,9.84,2.07,14.84,7.88,3.47,4.05,1.1,5.84,5.08,15.66l.04.09Z"/>
        <path class="cls-23" d="M1190.13,1923.9c-.9,1.16-4.44,1.1-16.6-5.1-3.85-10.23-5.69-12.3-6.61-12.1-1.66.37-.65,7.77-5.1,16.6-.73,1.46-1.36,2.41-1.55,2.69-1.14,1.72-3.94,5.9-9.17,8.53-4.52,2.28-12.06,4.26-13.48,2-1.64-2.63,7.41-7.26,12.21-19.73,1.68-4.35,2.24-9.26,3.36-19.08.97-8.61,1.46-12.92.86-17.34-.88-6.35-7.56-24.55-5.51-18.46-1.96-5.45-3.92-10.9-5.88-16.35l15.96-3.75c.52,5.15,1.42,12.08,3.01,20.2,1.29,6.59,3.21,16.37,6.5,25.2,8.59,23,24.36,33.62,21.99,36.65l.02.02Z"/>
      </g>
      <circle class="cls-15" cx="1046.25" cy="1905.64" r="33.38"/>
      <circle class="cls-1" cx="917.04" cy="1905.64" r="33.38"/>
      <ellipse class="cls-2" cx="1016.1" cy="1901.33" rx="26.92" ry="5.38"/>
      <ellipse class="cls-2" cx="1015.03" cy="1901.33" rx="12.92" ry="1.08"/>
      <g>
        <polyline class="cls-26" points="853.51 1863.65 855.67 1887.33 834.13 1901.53 817.31 1901.53 793.21 1893.79 793.21 1862.57"/>
        <path class="cls-14" d="M836.28,1906.72c-2.26,1.77-5.45-2.52-12.92-2.15-1.51.06-4.76.47-8.55,2.02-2.45,1.01-4.05,2.61-4.37,2.28-.6-.62,1.21-7.88,0-10.77-.71-1.7-3.7-4.26-6.46-4.31l4.31-35.68h28l6.46,33.53c-1.49,1.1-3.34,2.82-4.48,5.38-2.15,4.76,0,8.16-1.98,9.69Z"/>
        <polygon class="cls-5" points="836.28 1861.49 808.78 1861.49 801.83 1822.73 819.06 1822.73 823.36 1844.52 825.9 1822.73 842.74 1820.45 836.28 1861.49"/>
        <line class="cls-26" x1="834.84" y1="1820.45" x2="834.84" y2="1785.97"/>
        <line class="cls-26" x1="811.04" y1="1822.73" x2="811.04" y2="1785.97"/>
        <ellipse class="cls-21" cx="810.44" cy="1786.12" rx="4.31" ry="2.15"/>
        <ellipse class="cls-21" cx="834.13" cy="1786.12" rx="4.31" ry="2.15"/>
        <ellipse class="cls-45" cx="791.71" cy="1860.98" rx="2.15" ry="4.31" transform="translate(-66.06 29.51) rotate(-2.05)"/>
        <ellipse class="cls-45" cx="852.33" cy="1862.58" rx="2.15" ry="4.31" transform="translate(-66.08 31.68) rotate(-2.05)"/>
        <path class="cls-21" d="M831.98,1917.48c2.61-5.06-4.31-13.59-8.61-12.92-4.37.67-8.31,11.13-4.31,15.07,3.14,3.08,10.85,1.87,12.92-2.15Z"/>
        <path class="cls-28" d="M821.68,1933.38c3.79-.15,7.67,0,7.67,0h0s4.63-1.49,6.12-4.59c.78-1.62.5-3.23,0-6.12-.39-2.26-.58-3.45-1.53-4.59-1.62-1.96-1.72-1.21-3.06-3.06-1.34-1.85-1.66-3.23-3.06-4.59-1.51-1.46-7.67-1.53-7.67-1.53h3.06s-4.35-.73-6.12,1.53c-.84,1.08-.8,4.37-3.06,9.2-2.65,5.64-1.55,6.14-1.53,7.67.02,2.11.93,4.97,3.06,6.12,1.12.6,1.53.17,6.12,0v-.04Z"/>
      </g>
      <path class="cls-3" d="M1236.37,1779.23c7.04,5.64.28,15.1,6.42,28.1,9.35,19.77,36.5,22.4,35.64,25.35-.73,2.52-21.38,3.38-35.9-8.85-12.1-10.21-13.68-24.25-15.91-23.67-2.63.71-2.2,20.63,5.92,41.07,6.74,17.03,15.2,25.33,13.63,26.75-1.98,1.79-18.74-7.95-27.05-24.72-10.79-21.84-3.29-47.55-3.04-47.55.24,0-1.36,26.77-10.96,52.93-2.84,7.77-6.93,16.97-15.81,20.76-5.69,2.43-12.99,2.5-13.95.17-1.18-2.78,7.67-7.02,14.77-14.84,16.86-18.61,14.9-47.64,11.91-48.41-2.45-.65-4.67,17.87-16.8,21.45-10.23,3.01-22.68-6.03-21.92-9.04.73-2.99,13.78,2.69,23.43-4.63,3.19-2.41,5.47-5.81,12.49-31.79,32.58-6.74,37.11-3.12,37.11-3.12l.02.04Z"/>
      <g>
        <path class="cls-25" d="M1163.08,1649.28c2.39,8.08,4.48,8.79,4.39,13.72,0,.82-.26,9.13-5.86,12.55-2.97,1.83-6.31,1.57-11.11,1.21-6.53-.5-9.5-2.3-10.25-1.16-.73,1.1,1.46,3.57,6.85,10.62,7.32,9.54,7.77,10.81,7.6,12.23-.6,5.06-8.79,8.74-15.27,9.02-1.53.06-9.76.26-14.11-5.3-3.98-5.08-2.33-11.93-3.66-12.1-1.57-.22-1.53,9.88-8.31,15.66-3.75,3.19-9.88,5.34-15.91,3.42-4.48-1.42-8.42-4.95-10.06-9.13-1.79-4.57-1.29-11.22-1.29-11.22,0,0,12.94-10.29,12.15-11.52-.71-1.12-10.7,8.4-20.72,5.64-5.66-1.57-11.07-7-11.56-12.38-.41-4.63,2.65-11.07,2.65-11.07,0,0,1.77-7.54,5.1-14.17,2.78-5.51,4.37-8.68,7.34-9.3,4.31-.93,5.97,4.54,11.76,4.41,5.49-.13,11.2-5.19,11.2-5.19,0,0,8.7-4.18,18.37-6.53,5.6-1.36,5.86-.73,14.3-2.67,0,0,2.05-.47,8.76-2.09,0,0,9.6,2.99,14,9.28,3.06,4.35.54,5.9,3.55,16.09l.09-.02Z"/>
        <path class="cls-23" d="M1140.1,1657.94c-1.01,1.08-4.52.67-16.02-6.68-2.84-10.55-4.46-12.79-5.43-12.68-1.7.19-1.38,7.69-6.68,16.02-.88,1.38-1.57,2.26-1.79,2.54-1.29,1.62-4.48,5.49-9.95,7.6-4.72,1.83-12.43,3.08-13.61.69-1.38-2.78,8.08-6.5,14.06-18.46,2.09-4.18,3.12-9,5.17-18.67,1.81-8.48,2.71-12.73,2.52-17.19-.26-6.42-5.15-25.15-3.7-18.91-1.42-5.6-2.84-11.22-4.29-16.82l16.26-2.2c.02,5.19.24,12.17,1.06,20.39.65,6.68,1.62,16.6,4.05,25.71,6.33,23.71,21,35.81,18.35,38.61v.02Z"/>
      </g>
      <g>
        <path class="cls-25" d="M1110.34,1665.63c3.19,10.77,5.97,11.69,5.86,18.26,0,1.1-.34,12.15-7.8,16.71-3.96,2.43-8.42,2.09-14.77,1.59-8.68-.67-12.64-3.06-13.65-1.55-.97,1.44,1.94,4.76,9.13,14.13,9.73,12.71,10.34,14.41,10.12,16.28-.8,6.74-11.69,11.63-20.31,12.02-2.02.09-12.99.34-18.78-7.04-5.3-6.76-3.1-15.87-4.87-16.11-2.11-.28-2.05,13.16-11.05,20.85-4.97,4.24-13.16,7.11-21.17,4.54-5.94-1.9-11.22-6.59-13.37-12.17-2.37-6.09-1.72-14.92-1.72-14.92,0,0,17.23-13.72,16.17-15.35-.95-1.49-14.24,11.18-27.57,7.52-7.54-2.09-14.73-9.3-15.38-16.47-.56-6.16,3.53-14.73,3.53-14.73,0,0,2.35-10.04,6.78-18.86,3.7-7.34,5.81-11.54,9.8-12.38,5.73-1.23,7.92,6.05,15.66,5.88,7.3-.17,14.92-6.89,14.92-6.89,0,0,11.59-5.56,24.44-8.68,7.45-1.81,7.8-.99,19.04-3.57,0,0,2.71-.62,11.65-2.78,0,0,12.77,3.98,18.65,12.34,4.07,5.79.71,7.86,4.74,21.41h-.06Z"/>
        <path class="cls-23" d="M1079.76,1677.13c-1.36,1.44-6.03.9-21.34-8.89-3.79-14.04-5.94-17.01-7.21-16.88-2.26.26-1.85,10.23-8.89,21.34-1.16,1.85-2.09,3.01-2.39,3.38-1.72,2.15-5.97,7.3-13.24,10.12-6.27,2.43-16.54,4.11-18.11.93-1.83-3.7,10.75-8.68,18.71-24.55,2.78-5.56,4.16-12,6.89-24.85,2.41-11.28,3.6-16.93,3.36-22.87-.34-8.53-6.85-33.49-4.93-25.15-1.89-7.47-3.79-14.92-5.69-22.4l21.64-2.93c.04,6.89.32,16.19,1.4,27.16.86,8.89,2.15,22.1,5.38,34.22,8.42,31.57,27.95,47.66,24.42,51.38h0Z"/>
      </g>
    </g>
  </g>
</svg>